<svg width="15" height="15" viewBox="0 0 15 15" fill="none" xmlns="http://www.w3.org/2000/svg">
<g clip-path="url(#clip0_110_11022)">
<path fill-rule="evenodd" clip-rule="evenodd" d="M3.73397e-08 7.50023C-5.32296e-06 7.15505 0.279812 6.87522 0.62499 6.87522L12.8347 6.87502L11.3661 5.4483C11.1185 5.20778 11.1128 4.81209 11.3533 4.5645C11.5938 4.31692 11.9895 4.31119 12.2371 4.55171L14.8105 7.05171C14.9317 7.16939 15.0001 7.3311 15.0001 7.5C15.0001 7.6689 14.9317 7.83061 14.8105 7.9483L12.2371 10.4483C11.9895 10.6888 11.5938 10.6831 11.3533 10.4355C11.1128 10.1879 11.1185 9.79222 11.3661 9.5517L12.8347 8.12502L0.62501 8.12522C0.279832 8.12522 5.43489e-06 7.8454 3.73397e-08 7.50023Z" fill="white"/>
</g>
<defs>
<clipPath id="clip0_110_11022">
<rect width="15" height="15" fill="white" transform="matrix(1 0 0 -1 0 15)"/>
</clipPath>
</defs>
</svg>
