<svg width="9" height="9" viewBox="0 0 9 9" fill="none" xmlns="http://www.w3.org/2000/svg">
<path fill-rule="evenodd" clip-rule="evenodd" d="M0.746094 3.26166C0.746094 1.9101 1.74214 0.814453 2.97083 0.814453H5.93714C7.16582 0.814453 8.16187 1.9101 8.16187 3.26166V6.5246C8.16187 7.87616 7.16582 8.97181 5.93714 8.97181H2.97083C1.74214 8.97181 0.746094 7.87616 0.746094 6.5246V3.26166ZM2.97083 1.63019C2.1517 1.63019 1.48767 2.36062 1.48767 3.26166V6.5246C1.48767 7.42564 2.1517 8.15607 2.97083 8.15607H5.93714C6.75626 8.15607 7.42029 7.42564 7.42029 6.5246V3.26166C7.42029 2.36062 6.75626 1.63019 5.93714 1.63019H2.97083ZM3.7124 4.89313C3.7124 5.34365 4.04442 5.70887 4.45398 5.70887C4.86354 5.70887 5.19556 5.34365 5.19556 4.89313C5.19556 4.44261 4.86354 4.07739 4.45398 4.07739C4.04442 4.07739 3.7124 4.44261 3.7124 4.89313ZM4.45398 3.26166C3.63486 3.26166 2.97083 3.99209 2.97083 4.89313C2.97083 5.79417 3.63486 6.5246 4.45398 6.5246C5.27311 6.5246 5.93714 5.79417 5.93714 4.89313C5.93714 3.99209 5.27311 3.26166 4.45398 3.26166ZM6.12253 2.44592C5.81536 2.44592 5.56635 2.71984 5.56635 3.05773C5.56635 3.39561 5.81536 3.66953 6.12253 3.66953C6.4297 3.66953 6.67871 3.39561 6.67871 3.05773C6.67871 2.71984 6.4297 2.44592 6.12253 2.44592Z" fill="#173334"/>
</svg>
