<svg width="104" height="21" viewBox="0 0 104 21" fill="none" xmlns="http://www.w3.org/2000/svg">
<path d="M3.30231 20L3.30231 5.51857C3.30231 4.47193 3.52788 3.55162 3.97901 2.75762C4.43015 1.94558 5.07076 1.30497 5.90085 0.835786C6.73093 0.366606 7.70539 0.132015 8.8242 0.132015C9.67233 0.132015 10.4032 0.276378 11.0167 0.565104C11.6303 0.853831 12.1806 1.25083 12.6679 1.7561L10.4212 4.02982C10.2227 3.83132 10.0062 3.67794 9.77158 3.56966C9.53699 3.46139 9.23924 3.40725 8.87834 3.40725C8.2287 3.40725 7.72343 3.58771 7.36252 3.94862C7.01966 4.29148 6.84823 4.78773 6.84823 5.43736L6.84823 20H3.30231ZM0.270681 10.0389L0.270681 6.92611L10.719 6.92611V10.0389L0.270681 10.0389ZM17.1326 20.2707C15.9777 20.2707 14.9491 20.0271 14.0469 19.5398C13.1626 19.0526 12.4679 18.3759 11.9626 17.5097C11.4573 16.6436 11.2047 15.642 11.2047 14.5052L11.2047 6.92611H14.7777L14.7777 14.424C14.7777 14.9653 14.8679 15.4345 15.0484 15.8315C15.2288 16.2105 15.4995 16.4992 15.8604 16.6977C16.2213 16.8962 16.6454 16.9954 17.1326 16.9954C17.8725 16.9954 18.4499 16.7699 18.865 16.3187C19.28 15.8676 19.4876 15.236 19.4876 14.424L19.4876 6.92611H23.0335L23.0335 14.5052C23.0335 15.6601 22.7808 16.6706 22.2756 17.5368C21.7883 18.403 21.0936 19.0797 20.1913 19.5669C19.3071 20.0361 18.2875 20.2707 17.1326 20.2707ZM24.5038 20L24.5038 6.92611L28.0497 6.92611L28.0497 20H24.5038ZM28.0497 12.7728L26.6693 11.8525C26.8317 10.2465 27.3009 8.98328 28.0768 8.06297C28.8528 7.12461 29.9716 6.65543 31.4333 6.65543C32.0648 6.65543 32.6333 6.7637 33.1385 6.98024C33.6438 7.17874 34.104 7.51258 34.519 7.98176L32.2994 10.5262C32.1009 10.3096 31.8573 10.1472 31.5686 10.0389C31.2979 9.93067 30.9821 9.87653 30.6212 9.87653C29.8633 9.87653 29.2407 10.1201 28.7535 10.6074C28.2843 11.0766 28.0497 11.7984 28.0497 12.7728ZM43.1554 20L43.1554 12.5021C43.1554 11.7262 42.9118 11.0946 42.4246 10.6074C41.9374 10.1201 41.3058 9.87653 40.5298 9.87653C40.0246 9.87653 39.5734 9.9848 39.1764 10.2013C38.7794 10.4179 38.4636 10.7247 38.229 11.1217C38.0125 11.5187 37.9042 11.9788 37.9042 12.5021L36.5237 11.7984C36.5237 10.7698 36.7403 9.87653 37.1734 9.11862C37.6245 8.34267 38.2381 7.73815 39.014 7.30506C39.808 6.87197 40.7013 6.65543 41.6938 6.65543C42.6502 6.65543 43.5073 6.89904 44.2652 7.38627C45.0231 7.85545 45.6186 8.47801 46.0517 9.25396C46.4848 10.0119 46.7014 10.8329 46.7014 11.7172L46.7014 20H43.1554ZM34.3583 20L34.3583 6.92611H37.9042L37.9042 20H34.3583ZM48.2043 20L48.2043 6.92611L51.7773 6.92611L51.7773 20H48.2043ZM49.9908 4.8148C49.4133 4.8148 48.9351 4.62532 48.5562 4.24637C48.1772 3.84937 47.9877 3.36214 47.9877 2.78469C47.9877 2.22528 48.1772 1.74708 48.5562 1.35008C48.9351 0.953081 49.4133 0.754582 49.9908 0.754582C50.5863 0.754582 51.0645 0.953081 51.4254 1.35008C51.8043 1.74708 51.9938 2.22528 51.9938 2.78469C51.9938 3.36214 51.8043 3.84937 51.4254 4.24637C51.0645 4.62532 50.5863 4.8148 49.9908 4.8148ZM55.4869 20L55.4869 1.48542L59.0328 1.48542L59.0328 20H55.4869ZM52.4282 10.0389V6.92611L62.0915 6.92611V10.0389L52.4282 10.0389ZM68.3082 20.2707C67.1533 20.2707 66.1248 20.0271 65.2225 19.5398C64.3383 19.0526 63.6435 18.3759 63.1382 17.5097C62.633 16.6436 62.3803 15.642 62.3803 14.5052V6.92611H65.9533V14.424C65.9533 14.9653 66.0436 15.4345 66.224 15.8315C66.4045 16.2105 66.6751 16.4992 67.036 16.6977C67.397 16.8962 67.821 16.9954 68.3082 16.9954C69.0481 16.9954 69.6256 16.7699 70.0406 16.3187C70.4557 15.8676 70.6632 15.236 70.6632 14.424V6.92611L74.2091 6.92611V14.5052C74.2091 15.6601 73.9565 16.6706 73.4512 17.5368C72.964 18.403 72.2692 19.0797 71.3669 19.5669C70.4827 20.0361 69.4632 20.2707 68.3082 20.2707ZM75.6794 20V6.92611H79.2254V20L75.6794 20ZM79.2254 12.7728L77.8449 11.8525C78.0073 10.2465 78.4765 8.98328 79.2524 8.06297C80.0284 7.12461 81.1472 6.65543 82.6089 6.65543C83.2405 6.65543 83.8089 6.7637 84.3142 6.98024C84.8194 7.17874 85.2796 7.51258 85.6946 7.98176L83.4751 10.5262C83.2766 10.3096 83.0329 10.1472 82.7442 10.0389C82.4735 9.93067 82.1577 9.87653 81.7968 9.87653C81.0389 9.87653 80.4164 10.1201 79.9291 10.6074C79.46 11.0766 79.2254 11.7984 79.2254 12.7728ZM91.4694 20.2707C90.098 20.2707 88.8799 19.982 87.8153 19.4045C86.7506 18.809 85.9024 17.997 85.2709 16.9684C84.6573 15.9398 84.3505 14.7668 84.3505 13.4495C84.3505 12.1503 84.6483 10.9953 85.2438 9.9848C85.8573 8.95622 86.6874 8.14417 87.734 7.54867C88.7807 6.93513 89.9446 6.62836 91.2258 6.62836C92.489 6.62836 93.5988 6.91709 94.5552 7.49454C95.5297 8.05395 96.2876 8.8299 96.8289 9.82239C97.3883 10.7968 97.668 11.9066 97.668 13.1518C97.668 13.3864 97.65 13.63 97.6139 13.8826C97.5959 14.1172 97.5507 14.3879 97.4786 14.6947L86.4889 14.7217V12.069L95.8274 12.042L94.3928 13.1518C94.3567 12.3758 94.2123 11.7262 93.9597 11.2029C93.7251 10.6796 93.3732 10.2826 92.9041 10.0119C92.4529 9.72314 91.8935 9.57878 91.2258 9.57878C90.5221 9.57878 89.9085 9.74119 89.3852 10.066C88.8619 10.3728 88.4559 10.8149 88.1671 11.3923C87.8965 11.9518 87.7611 12.6194 87.7611 13.3954C87.7611 14.1894 87.9055 14.8841 88.1942 15.4796C88.501 16.0571 88.9341 16.5082 89.4935 16.833C90.0529 17.1398 90.7025 17.2932 91.4424 17.2932C92.1101 17.2932 92.7146 17.1849 93.2559 16.9684C93.7973 16.7338 94.2665 16.3909 94.6635 15.9398L96.7477 18.024C96.1161 18.7639 95.3402 19.3233 94.4199 19.7023C93.5176 20.0812 92.5341 20.2707 91.4694 20.2707ZM100.944 20.2707C100.294 20.2707 99.7617 20.0541 99.3467 19.621C98.9316 19.188 98.7241 18.6556 98.7241 18.024C98.7241 17.3924 98.9316 16.8601 99.3467 16.427C99.7617 15.9939 100.294 15.7774 100.944 15.7774C101.575 15.7774 102.099 15.9939 102.514 16.427C102.929 16.8601 103.136 17.3924 103.136 18.024C103.136 18.6556 102.929 19.188 102.514 19.621C102.099 20.0541 101.575 20.2707 100.944 20.2707Z" fill="white"/>
</svg>
