<svg width="8" height="8" viewBox="0 0 8 8" fill="none" xmlns="http://www.w3.org/2000/svg">
<path fill-rule="evenodd" clip-rule="evenodd" d="M3.59564 0.984375C2.89847 0.984375 2.03687 1.19658 1.34001 1.6804C0.628737 2.17423 0.09375 2.95034 0.09375 4.03544C0.09375 4.69687 0.333058 5.1983 0.574931 5.53416C0.679323 5.67911 0.784268 5.79346 0.871055 5.87752L0.518039 7.18469C0.479016 7.32918 0.53443 7.48149 0.659933 7.57468C0.785437 7.66788 0.958064 7.68492 1.10197 7.61831L2.58869 6.93017C3.43084 7.19136 4.58464 7.10231 5.54435 6.69412C6.5965 6.24661 7.50953 5.37102 7.50953 4.03544C7.50953 2.85463 6.94689 2.0672 6.14832 1.59298C5.37505 1.13379 4.41156 0.984375 3.59564 0.984375ZM1.7294 5.84416C1.76936 5.69618 1.71023 5.5405 1.57928 5.44821L1.57783 5.44714C1.57527 5.44525 1.57001 5.4413 1.56243 5.43527C1.54722 5.42321 1.52285 5.40301 1.49229 5.37472C1.43096 5.31794 1.34611 5.22989 1.26052 5.11105C1.09041 4.87483 0.917725 4.51815 0.917725 4.03544C0.917725 3.21362 1.30971 2.65489 1.8344 2.29061C2.3735 1.91632 3.05686 1.74714 3.59564 1.74714C4.32448 1.74714 5.11194 1.88377 5.70343 2.23501C6.26962 2.57123 6.68555 3.11864 6.68555 4.03544C6.68555 4.98814 6.05362 5.63809 5.20034 6.00101C4.3271 6.37243 3.3179 6.39792 2.72797 6.16388C2.61658 6.11969 2.48982 6.12313 2.38143 6.1733L1.53466 6.56524L1.7294 5.84416ZM3.64702 3.35625C3.48309 3.23485 3.24677 3.24696 3.09833 3.38438L2.27436 4.14714C2.11347 4.29608 2.11347 4.53756 2.27436 4.6865C2.43525 4.83544 2.6961 4.83544 2.85699 4.6865L3.42023 4.16511L4.16225 4.71463C4.32618 4.83603 4.5625 4.82391 4.71094 4.6865L5.53491 3.92373C5.69581 3.7748 5.69581 3.53332 5.53491 3.38438C5.37402 3.23544 5.11317 3.23544 4.95228 3.38438L4.38904 3.90577L3.64702 3.35625Z" fill="#173334"/>
</svg>
