<svg width="10" height="11" viewBox="0 0 10 11" fill="none" xmlns="http://www.w3.org/2000/svg">
<path fill-rule="evenodd" clip-rule="evenodd" d="M5.43337 3.01616C5.20491 3.37857 5.12779 3.80371 5.12779 4.0055C5.12779 4.13844 5.0614 4.26273 4.95057 4.33727C4.83974 4.4118 4.69891 4.42687 4.57464 4.37749C4.49337 4.3452 4.40282 4.31237 4.30491 4.27687C4.05126 4.18491 3.74822 4.07504 3.42914 3.91023C3.10509 3.74284 2.75197 3.51552 2.35201 3.17798C2.35697 3.32866 2.39048 3.46666 2.44679 3.59455C2.57823 3.89311 2.85694 4.18829 3.31847 4.46319C3.44474 4.53841 3.51972 4.67599 3.51409 4.82213C3.50846 4.96827 3.42311 5.09976 3.29142 5.16516L3.29098 5.16538L3.2905 5.16562L3.28942 5.16615L3.28681 5.16742L3.27977 5.17079C3.27428 5.17339 3.26718 5.17668 3.25854 5.18056C3.24125 5.18831 3.21772 5.19844 3.18836 5.21011C3.12969 5.23342 3.04733 5.26304 2.94454 5.29221C2.83644 5.32289 2.70482 5.35333 2.55371 5.37527C2.63994 5.67941 2.83211 5.86925 3.0392 6.01265C3.16097 6.09698 3.27878 6.15905 3.39718 6.22143C3.42663 6.23694 3.45612 6.25248 3.48572 6.26838C3.55038 6.30313 3.63539 6.35009 3.70569 6.40595C3.75995 6.44906 3.91774 6.58292 3.91774 6.81008C3.91774 6.95533 3.85142 7.06853 3.80944 7.12902C3.76033 7.1998 3.69834 7.26367 3.63344 7.31951C3.5025 7.43217 3.32674 7.54042 3.11835 7.6291C2.87841 7.73121 2.58548 7.81151 2.25063 7.84043C2.27806 7.85504 2.30722 7.869 2.33814 7.88231C2.63173 8.00868 3.06108 8.0604 3.57832 8.01369C4.6038 7.9211 5.82037 7.45626 6.65654 6.72753C7.29754 5.99211 7.56902 5.26446 7.68201 4.72517C7.73916 4.45238 7.75583 4.22721 7.75858 4.0735C7.75995 3.99672 7.75784 3.93805 7.75564 3.90051C7.75454 3.88175 7.75341 3.86831 7.75269 3.86056L7.75196 3.85328C7.74009 3.75539 7.76495 3.65636 7.82187 3.57553L7.75207 3.85417L7.75216 3.85486L7.82187 3.57553L8.56383 3.91526C8.55769 3.92458 8.56939 3.90692 8.56383 3.91526C8.56383 3.91526 8.56634 4.02097 8.56515 4.08773C8.56163 4.2846 8.54055 4.56025 8.47179 4.88844C8.33393 5.54644 8.00466 6.41344 7.24706 7.27413C7.2359 7.2868 7.22396 7.29876 7.21129 7.30994C6.23181 8.17426 4.83677 8.70468 3.65134 8.81172C3.05923 8.86518 2.48014 8.81673 2.01741 8.61757C1.53826 8.41133 1.1687 8.03154 1.09687 7.46076C1.08107 7.33523 1.12589 7.20966 1.21777 7.12204C1.30965 7.03443 1.43778 6.99506 1.56341 7.01586C2.08815 7.10274 2.51452 7.01431 2.80068 6.89254C2.82921 6.8804 2.88125 6.85565 2.88125 6.85565C2.88125 6.85565 2.68181 6.74199 2.57785 6.66999C2.15223 6.37525 1.69931 5.87709 1.69931 5.00713C1.69931 4.78586 1.87989 4.60648 2.10266 4.60648C2.13199 4.60648 2.16075 4.60593 2.18892 4.60488C1.98343 4.39832 1.81935 4.16929 1.70767 3.91562C1.48126 3.40134 1.49309 2.83782 1.72816 2.25407C1.77851 2.12903 1.88874 2.03748 2.02156 2.0104C2.15437 1.98332 2.292 2.02433 2.38787 2.11957C2.96761 2.69543 3.42225 3.00349 3.80131 3.19929C4.01908 3.31177 4.20582 3.38589 4.3926 3.45471C4.45735 3.18167 4.57049 2.8751 4.74964 2.5909C5.08056 2.06595 5.65155 1.60156 6.53952 1.60156C7.09034 1.60156 7.44477 1.87119 7.66795 2.05599C7.69484 2.07826 7.71817 2.09774 7.73866 2.11485C7.79026 2.15794 7.82389 2.18603 7.85132 2.2059C8.03468 2.11957 8.20024 2.05908 8.34746 2.03121C8.50396 2.00159 8.72949 1.9925 8.9152 2.14019C9.1106 2.29559 9.13322 2.51912 9.12651 2.65151C9.11949 2.79006 9.07796 2.92882 9.0343 3.04443C8.9451 3.28059 8.80319 3.53161 8.69255 3.71262C8.64408 3.7919 8.59932 3.86144 8.56383 3.91526C8.5709 4.00273 8.56306 3.90701 8.56383 3.91526L7.82187 3.57553L7.82233 3.57487L7.82465 3.57155L7.83469 3.55702C7.84366 3.54396 7.85696 3.52442 7.87354 3.49954C7.90677 3.44967 7.9527 3.37902 8.003 3.29673C8.07448 3.1798 8.14908 3.04853 8.20888 2.92436C8.18461 2.93565 8.1589 2.94801 8.13168 2.96153C8.12621 2.96425 8.12069 2.96684 8.11511 2.96931C7.86832 3.07829 7.64597 3.01441 7.48987 2.9266C7.38209 2.86598 7.27206 2.77312 7.19263 2.70608C7.17775 2.69352 7.16394 2.68187 7.15142 2.6715C6.96255 2.51511 6.7954 2.40287 6.53952 2.40287C5.98622 2.40287 5.64967 2.67302 5.43337 3.01616Z" fill="#173334"/>
</svg>
