<svg width="8" height="7" viewBox="0 0 8 7" fill="none" xmlns="http://www.w3.org/2000/svg">
<path fill-rule="evenodd" clip-rule="evenodd" d="M1.49918 1.1987C1.99567 1.11181 2.76073 1.03154 3.89148 1.03154C5.02223 1.03154 5.78729 1.11181 6.28379 1.1987C6.61941 1.25744 6.85779 1.58875 6.85779 2.06276V5.00597C6.85779 5.47998 6.61941 5.81129 6.28379 5.87003C5.78729 5.95692 5.02224 6.03719 3.89148 6.03719C2.76073 6.03719 1.99567 5.95692 1.49918 5.87003C1.16355 5.81129 0.925171 5.47998 0.925171 5.00597V2.06276C0.925171 1.58875 1.16355 1.25744 1.49918 1.1987ZM3.89148 0.197266C2.73049 0.197266 1.92649 0.279604 1.38518 0.374344C0.610604 0.509909 0.183594 1.27277 0.183594 2.06276V5.00597C0.183594 5.79596 0.610604 6.55882 1.38518 6.69439C1.92649 6.78913 2.73049 6.87146 3.89148 6.87146C5.05247 6.87146 5.85647 6.78913 6.39778 6.69439C7.17236 6.55882 7.59937 5.79596 7.59937 5.00597V2.06276C7.59937 1.27277 7.17236 0.509909 6.39778 0.374344C5.85647 0.279604 5.05247 0.197266 3.89148 0.197266ZM3.34573 2.33231C3.4663 2.25972 3.61259 2.26768 3.72637 2.35301L4.83874 3.18729C4.94189 3.26465 5.00385 3.39489 5.00385 3.53437C5.00385 3.67384 4.94189 3.80408 4.83874 3.88145L3.72637 4.71572C3.61259 4.80105 3.4663 4.80901 3.34573 4.73642C3.22517 4.66383 3.1499 4.52248 3.1499 4.36864V2.70009C3.1499 2.54625 3.22517 2.4049 3.34573 2.33231Z" fill="#173334"/>
</svg>
