<svg width="254" height="587" viewBox="0 0 254 587" fill="none" xmlns="http://www.w3.org/2000/svg">
<path d="M42.6464 594.979C46.5064 596.225 156.544 594.798 160.695 592.081C162.29 591.076 163.016 575.029 163.338 555.616C163.34 555.412 163.342 555.209 163.342 555.008C163.417 551.008 163.469 546.887 163.475 542.713C163.476 542.138 163.478 541.563 163.496 540.99C163.651 512.972 163.207 483.905 163.207 483.905L89.5973 484.642L91.8112 541.191L91.8956 543.43L92.3395 555.136L92.3826 556.34C92.3826 556.34 50.5084 575.724 46.2548 579.194C42.039 582.65 38.7846 593.75 42.6464 594.979Z" fill="#EB9481"/>
<path d="M75.7112 563.866C75.997 563.781 76.1497 563.697 76.1659 563.612C76.1659 563.612 75.997 563.699 75.7112 563.866Z" fill="#6FD943"/>
<path d="M42.6526 594.974C46.5072 596.219 156.544 594.805 160.703 592.079C162.117 591.188 162.857 578.411 163.228 561.948C143.061 566.157 64.9231 581.964 62.7847 575.28C61.9437 572.655 68.625 568.11 72.8516 565.551C61.3039 571.056 48.5109 577.351 46.2557 579.203C42.047 582.652 38.7818 593.745 42.6526 594.974Z" fill="#6FD943"/>
<path opacity="0.1" d="M111.768 594.805C136.529 594.216 158.866 593.274 160.701 592.079C162.115 591.188 162.856 578.411 163.226 561.948C160.365 562.538 156.325 563.379 151.509 564.338L111.768 594.805Z" fill="black"/>
<path d="M185.794 166.934C185.794 166.934 169.274 352.87 166.58 367.061C165.957 370.292 165.57 387.867 165.319 410.456C164.745 459.743 165.087 548.639 165.087 548.639H87.5201C87.5201 548.639 89.8221 394.615 93.2562 366.269C96.6903 337.904 118.641 166.934 118.641 166.934H185.794Z" fill="#263238"/>
<path d="M91.0245 535.126C103.127 534.874 99.6502 534.775 111.755 534.659C117.678 534.601 156.605 534.263 162.14 535.18C162.262 535.2 162.262 535.406 162.14 535.426C156.605 536.342 117.678 536.003 111.755 535.947C99.6502 535.83 103.127 535.731 91.0245 535.48C90.7981 535.474 90.7963 535.131 91.0245 535.126Z" fill="#455A64"/>
<path d="M150.348 447.077C150.434 435.828 150.518 424.577 150.599 413.327C150.678 402.43 150.662 391.524 151.181 380.638C152.231 358.595 156.704 336.923 159.883 315.129C163.065 293.324 165.718 271.441 168.12 249.538C170.816 224.963 173.197 200.355 175.722 175.763C175.74 175.595 175.998 175.599 175.984 175.77C172.329 219.678 168.251 263.578 162.172 307.226C160.661 318.081 159.004 328.916 157.216 339.73C155.406 350.678 153.606 361.629 152.743 372.698C151.898 383.534 151.76 394.408 151.649 405.269C151.534 416.512 151.422 427.756 151.313 438.998C151.07 463.971 150.829 502.411 150.587 527.386C150.581 527.87 149.834 527.85 149.837 527.368C150.008 505.092 150.179 469.351 150.348 447.077Z" fill="#455A64"/>
<path d="M202.146 166.934C202.146 166.934 169.272 352.87 166.578 367.061C165.954 370.292 165.568 387.867 165.316 410.456L165.3 410.524L128.336 166.934H202.146Z" fill="#455A64"/>
<path d="M132.722 601.538C136.661 602.507 246.32 593.29 250.269 590.285C251.789 589.17 251.377 573.113 250.322 553.725C250.31 553.522 250.295 553.321 250.283 553.118C250.074 549.123 249.834 545.008 249.544 540.844C249.505 540.271 249.465 539.697 249.444 539.124C247.613 511.166 245.111 482.203 245.111 482.203L171.739 488.153L177.953 544.404L178.195 546.632L179.468 558.277L179.595 559.476C179.595 559.476 139.198 581.778 135.201 585.54C131.243 589.283 128.782 600.586 132.722 601.538Z" fill="#EB9481"/>
<path d="M161.829 568.143C162.083 568.042 162.216 567.957 162.234 567.889C162.234 567.889 162.099 567.974 161.829 568.143Z" fill="#6FD943"/>
<path d="M132.726 601.539C136.665 602.514 246.314 593.29 250.27 590.277C251.565 589.333 251.465 577.467 250.74 561.963C233.757 566.306 151.897 586.893 149.39 580.125C148.869 578.695 150.601 576.572 152.959 574.502C144.475 579.417 136.832 583.996 135.201 585.527C131.244 589.285 128.787 600.579 132.726 601.539Z" fill="#6FD943"/>
<path d="M176.308 552.83L253.801 549.545C253.801 549.545 232.648 379.493 232.256 369.041C231.674 353.502 224.222 289.37 217.966 237.449C217.966 237.449 229.83 209.336 207.626 166.871H118.571C118.571 166.871 124.541 207.28 134.757 232.902C134.757 232.902 142.538 235.316 154.557 241.941C154.557 241.941 163.421 357.711 163.752 372.152C164.41 400.696 176.308 552.83 176.308 552.83Z" fill="#263238"/>
<path d="M178.371 538.628C190.452 537.864 186.975 537.913 199.063 537.284C204.979 536.977 243.858 534.989 249.425 535.67C249.547 535.685 249.556 535.891 249.436 535.916C243.944 537.067 205.038 538.377 199.119 538.571C187.02 538.966 190.49 538.722 178.387 538.982C178.159 538.986 178.142 538.643 178.371 538.628Z" fill="#455A64"/>
<path d="M131.379 231.146C139.404 233.909 147.151 237.831 154.558 241.941C154.849 242.103 154.657 242.554 154.343 242.419C146.535 239.066 138.572 235.856 130.958 232.079C130.358 231.781 130.762 230.934 131.379 231.146Z" fill="#455A64"/>
<path d="M128.894 177.567C128.916 177.297 129.39 177.238 129.387 177.529C129.324 186.8 129.915 194.955 130.697 203.618C131.06 207.64 134.294 229.869 141.269 228.248C142.437 227.977 143.033 226.827 143.217 225.067C143.436 222.95 142.64 220.355 142.291 218.251C141.517 213.599 140.895 208.93 140.496 204.229C139.75 195.456 139.713 186.681 140.78 177.933C140.814 177.646 141.229 177.667 141.229 177.958C141.218 190.104 141.536 202.227 143.353 214.258C144.227 220.039 147.138 228.744 141.093 229.633C134.932 230.539 130.948 215.96 130.197 211.972C128.098 200.842 128.016 188.827 128.894 177.567Z" fill="#455A64"/>
<path d="M141.086 228.845C141.717 230.338 142.223 231.891 142.655 233.452C142.989 234.665 143.445 235.975 143.307 237.238C143.28 237.483 142.955 237.508 142.823 237.341C142.006 236.304 141.659 234.884 141.203 233.655C140.672 232.23 140.11 230.816 139.621 229.377C139.296 228.422 140.698 227.925 141.086 228.845Z" fill="#455A64"/>
<path d="M126.905 94.51H133.899C134.363 91.0975 135.374 85.5357 137.051 82.5688C137.051 82.5688 135.491 90.0947 136.124 94.51H142.268C142.807 89.7479 144.257 81.1186 148.008 75.0177C147.831 75.6664 144.746 87.3381 145.479 94.51H199.607C202.006 83.0917 200.146 70.6617 201.09 73.3752C203.609 80.6136 204.335 89.4208 204.486 94.51H210.512C210.605 92.3859 210.63 88.738 210.023 85.8897C209.23 82.098 212.341 89.6059 212.736 94.51H216.571C216.571 94.51 217.339 78.2362 211.38 66.6418C203.475 51.2107 208.102 45.498 204.856 28.6006C201.165 9.3778 175.899 -13.8739 150.651 10.4309C148.611 12.395 136.866 22.2715 136.756 40.5598C136.638 54.3052 139.765 61.5688 135.046 68.6311C129.155 77.4203 126.652 87.1278 126.905 94.51Z" fill="#263238"/>
<path d="M219.044 92.2134C219.774 86.4144 219.064 80.4447 217.431 74.7967C216.613 71.9682 215.571 69.199 214.304 66.534C213.695 65.2024 212.945 63.8888 212.298 62.6201C211.639 61.3711 211.078 60.0701 210.602 58.7331C208.677 53.3708 208.081 47.5754 207.351 41.8087C206.994 38.9191 206.602 36.0151 206.009 33.1435C205.374 30.2862 204.602 27.4325 203.351 24.7909C205.18 30.3473 205.543 36.1571 206.041 41.9435C206.262 44.8457 206.541 47.7569 206.954 50.6716C207.398 53.5792 208.027 56.4868 209.019 59.3027C209.533 60.7044 210.138 62.0756 210.85 63.3946C211.545 64.71 212.234 65.9302 212.877 67.2276C214.192 69.7866 215.24 72.4677 216.184 75.1848C217.096 77.9127 217.828 80.7089 218.311 83.5572C218.579 84.9768 218.755 86.4144 218.89 87.8574C218.996 89.304 219.062 90.756 219.044 92.2134Z" fill="#263238"/>
<path d="M136.757 40.5596C136.638 42.8975 136.807 45.23 136.771 47.5518C136.786 49.8717 136.721 52.1827 136.516 54.4703C136.293 56.7543 135.959 59.0222 135.364 61.2164C135.237 61.7716 135.043 62.3035 134.89 62.8498L134.768 63.256L134.637 63.5938C134.532 63.8274 134.408 64.0682 134.279 64.3108C133.738 65.2866 133.111 66.2714 132.502 67.2669C131.298 69.2688 130.117 71.3138 129.096 73.4433C128.092 75.5782 127.188 77.7723 126.525 80.042C125.84 82.3044 125.373 84.6316 125.123 86.9731C124.925 89.32 124.875 91.6759 125.152 93.9977C125.303 89.329 126.232 84.7717 127.774 80.4517C129.323 76.1245 131.503 72.0758 133.941 68.1403C134.536 67.1429 135.15 66.1564 135.727 65.0889C135.869 64.8158 136.008 64.539 136.139 64.2389C136.202 64.0862 136.265 63.9137 136.317 63.7609L136.441 63.3296C136.597 62.7546 136.797 62.1868 136.906 61.6009C137.442 59.2774 137.749 56.9125 137.823 54.553C137.918 52.1935 137.803 49.8394 137.591 47.5105C137.346 45.1779 137.016 42.8759 136.757 40.5596Z" fill="#263238"/>
<path d="M183.071 86.4845C174.26 102.421 131.494 158.434 110.713 159.941C97.1602 160.924 49.1042 142.595 38.2358 135.763C25.5057 127.759 40.1389 95.1498 48.867 96.6C59.757 98.4096 98.6338 115.711 108.625 116.822C114.37 117.46 144.214 94.7418 174.254 75.7096C185.586 68.5305 189.067 75.6377 183.071 86.4845Z" fill="#EB9481"/>
<path d="M54.8598 87.5249C48.1641 85.2248 40.6705 82.0494 33.2542 82.2561C25.8397 82.4627 19.7693 92.3086 19.7945 95.112C19.8196 97.9153 22.7739 115.377 30.1902 115.312C37.6066 115.246 33.0098 101.853 33.2757 100.311C33.5417 98.7689 33.8041 96.7976 35.2057 96.9306C36.6056 97.0635 61.1979 108.458 61.1979 108.458L54.8598 87.5249Z" fill="#EB9481"/>
<path d="M54.3954 88.5512C53.9749 88.5548 34.0351 80.8958 26.6206 81.1025C19.2061 81.3092 13.1357 91.1551 13.1609 93.9584C13.186 96.7618 16.1404 114.223 23.5567 114.159C30.973 114.092 26.3762 100.699 26.6422 99.1572C26.9081 97.6153 27.1705 95.644 28.5722 95.777C29.972 95.91 54.5643 107.305 54.5643 107.305L54.3954 88.5512Z" fill="#EB9481"/>
<path d="M26.0637 113.196C26.9676 112.015 27.1095 110.25 27.2587 108.804C27.4222 107.224 27.2767 105.619 26.9478 104.07C26.6603 102.723 26.0726 101.386 26.0115 100C25.9558 98.7169 26.4069 97.1895 27.0107 96.0699C27.5732 95.0259 28.6657 95.3709 29.6056 95.6925C30.9893 96.167 32.3407 96.8427 33.6543 97.4788C35.0775 98.1689 36.4864 98.8913 37.8989 99.6047C39.3491 100.338 40.8801 101.017 42.2261 101.934C42.3267 102.002 42.262 102.18 42.1362 102.137C40.8352 101.698 39.6042 101.049 38.3589 100.478C36.9446 99.8293 35.525 99.1914 34.0981 98.5714C32.7648 97.9927 31.4619 97.3422 30.1196 96.7869C29.6451 96.591 28.6963 96.0933 28.1608 96.2191C27.5947 96.3521 27.3288 97.7447 27.2066 98.1976C26.822 99.6226 27.0952 100.825 27.4995 102.203C27.8876 103.529 28.1824 104.883 28.3028 106.263C28.4142 107.533 28.3836 108.895 28.0278 110.13C27.6864 111.316 26.8921 112.279 26.2883 113.336C26.202 113.481 25.9612 113.327 26.0637 113.196Z" fill="#263238"/>
<path d="M78.0951 107.808C78.0951 107.808 57.3754 89.2591 53.0626 85.577C44.4135 78.1895 8.13156 63.7468 3.08911 63.258C-1.95334 62.7692 -3.68026 73.1147 20.9498 83.6237C33.9315 89.1639 36.2999 96.5478 36.0897 100.656C35.8794 104.762 32.0302 112.448 25.1242 112.322C18.2183 112.196 13.652 102.162 7.29776 101.1C0.943481 100.036 5.23656 111.625 9.77404 118.303C14.3115 124.98 22.4862 130.447 28.4775 132.632C34.4688 134.817 53.0176 142.615 53.0176 142.615L78.0951 107.808Z" fill="#EB9481"/>
<path d="M16.5166 107.546C19.133 109.537 22.1017 112.117 25.5251 112.216C29.0634 112.319 31.3402 110 32.9558 107.105C34.5857 104.185 35.5165 100.862 34.6827 97.5434C33.9315 94.5531 32.1237 91.9223 29.8828 89.8431C27.1118 87.2698 23.843 85.3703 20.4736 83.7027C20.3227 83.6272 20.4539 83.4098 20.6102 83.4781C23.7999 84.869 33.7159 88.8278 35.7699 97.5362C36.6091 101.094 35.5668 104.284 33.9333 107.281C32.4292 110.043 30.2243 112.714 26.8818 113.014C22.8062 113.381 19.2642 110.096 16.3135 107.646C16.1823 107.535 16.3782 107.441 16.5166 107.546Z" fill="#263238"/>
<path d="M125.706 158.831L124.16 106.687C124.16 106.687 145.34 90.4432 166.295 78.3133C187.252 66.1834 195.502 69.4756 179.46 95.1191C163.418 120.764 141.458 149.837 125.706 158.831Z" fill="#6FD943"/>
<path d="M143.323 102.832C143.516 104.07 143.431 105.269 143.28 106.458C143.095 107.643 142.842 108.818 142.31 109.952C142.114 108.714 142.2 107.515 142.353 106.325C142.54 105.141 142.793 103.968 143.323 102.832Z" fill="white"/>
<path d="M131.834 116.768C130.596 116.96 129.397 116.876 128.208 116.726C127.024 116.541 125.848 116.288 124.714 115.756C125.953 115.56 127.151 115.646 128.341 115.799C129.523 115.984 130.699 116.238 131.834 116.768Z" fill="white"/>
<path d="M182.391 77.2424C181.153 77.4347 179.955 77.3502 178.765 77.1992C177.581 77.0142 176.405 76.7608 175.272 76.2289C176.51 76.033 177.708 76.1193 178.898 76.272C180.082 76.4589 181.256 76.7123 182.391 77.2424Z" fill="white"/>
<path d="M136.134 128.057C137.146 128.795 137.933 129.703 138.668 130.65C139.374 131.619 140.027 132.627 140.453 133.807C139.439 133.069 138.652 132.161 137.919 131.214C137.214 130.246 136.562 129.236 136.134 128.057Z" fill="white"/>
<path d="M160.684 88.9175C161.695 89.6561 162.483 90.5636 163.218 91.5106C163.924 92.4792 164.576 93.4891 165.002 94.668C163.988 93.9294 163.201 93.0219 162.468 92.0731C161.762 91.1045 161.111 90.0945 160.684 88.9175Z" fill="white"/>
<path d="M153.783 115.823C154.521 114.811 155.429 114.024 156.376 113.289C157.344 112.583 158.354 111.93 159.533 111.504C158.795 112.518 157.887 113.305 156.94 114.038C155.97 114.744 154.961 115.397 153.783 115.823Z" fill="white"/>
<path d="M127.133 150.904C127.872 149.892 128.779 149.105 129.728 148.37C130.697 147.664 131.707 147.012 132.885 146.586C132.149 147.599 131.239 148.387 130.292 149.12C129.32 149.826 128.31 150.476 127.133 150.904Z" fill="white"/>
<path d="M130.621 106.802C131.228 114.002 131.577 121.18 131.679 128.406C131.729 132.032 131.735 135.658 131.688 139.287C131.64 142.985 131.348 146.669 131.208 150.362C131.201 150.543 130.928 150.516 130.928 150.336C130.969 143.078 130.743 135.797 130.651 128.535C130.56 121.293 130.457 114.053 130.371 106.813C130.369 106.672 130.61 106.66 130.621 106.802Z" fill="#263238"/>
<path d="M146.989 179.924C146.989 179.924 182.189 188.264 248.884 182.503C248.884 182.503 222.805 99.2595 201.802 76.8183C192.245 66.6058 182.902 68.1674 174.986 74.7355C173.012 76.3762 148.523 107.458 146.45 118.29C144.617 127.863 152.398 138.489 152.398 138.489L146.989 179.924Z" fill="#6FD943"/>
<path d="M151.821 105.211C153.291 102.995 154.799 100.781 156.36 98.6394C156.614 97.8775 156.923 97.1317 157.214 96.3877C157.704 95.3167 158.175 94.2277 158.811 93.2286C158.52 94.3715 158.067 95.4623 157.631 96.5513C157.485 96.8604 157.357 97.1497 157.232 97.4588C158.793 95.3347 160.409 93.2465 162.078 91.2141C159.011 96.1164 155.67 100.837 152.583 105.702C151.021 108.117 149.515 110.568 148.281 113.145C147.875 113.973 147.535 114.832 147.231 115.702C146.62 117.866 145.454 122.355 147.858 129.2C148.663 131.493 149.535 133.543 150.703 135.678C150.789 135.836 150.543 135.973 150.457 135.814C149.28 133.663 148.006 131.547 147.091 129.264C146.194 127.025 145.754 124.526 145.61 122.123C145.195 115.183 148.716 110.557 151.821 105.211Z" fill="#263238"/>
<path d="M174.786 102.906C174.979 104.144 174.894 105.343 174.743 106.532C174.558 107.716 174.305 108.892 173.773 110.026C173.577 108.787 173.663 107.589 173.816 106.399C174.005 105.217 174.256 104.041 174.786 102.906Z" fill="white"/>
<path d="M173.186 162.626C173.378 163.864 173.294 165.063 173.143 166.253C172.958 167.437 172.704 168.612 172.172 169.746C171.977 168.508 172.063 167.309 172.216 166.12C172.402 164.937 172.656 163.762 173.186 162.626Z" fill="white"/>
<path d="M155.912 173.406C156.104 174.645 156.02 175.843 155.869 177.033C155.684 178.217 155.43 179.392 154.898 180.526C154.703 179.288 154.789 178.09 154.942 176.9C155.128 175.716 155.382 174.54 155.912 173.406Z" fill="white"/>
<path d="M211.904 124.094C212.096 125.333 212.012 126.531 211.863 127.721C211.678 128.905 211.424 130.08 210.892 131.214C210.696 129.976 210.783 128.777 210.935 127.588C211.12 126.405 211.374 125.23 211.904 124.094Z" fill="white"/>
<path d="M154.729 136.239C154.921 137.477 154.837 138.675 154.686 139.865C154.501 141.049 154.248 142.225 153.716 143.358C153.52 142.12 153.606 140.922 153.759 139.732C153.947 138.548 154.199 137.373 154.729 136.239Z" fill="white"/>
<path d="M195.971 114.263C194.733 114.455 193.534 114.371 192.345 114.22C191.16 114.035 189.985 113.781 188.851 113.249C190.089 113.053 191.288 113.14 192.478 113.292C193.662 113.479 194.835 113.733 195.971 114.263Z" fill="white"/>
<path d="M216.722 149.497C215.483 149.689 214.285 149.605 213.095 149.454C211.911 149.269 210.736 149.015 209.602 148.484C210.84 148.288 212.039 148.374 213.228 148.527C214.411 148.714 215.586 148.967 216.722 149.497Z" fill="white"/>
<path d="M182.159 146.6C180.921 146.792 179.723 146.708 178.533 146.559C177.349 146.374 176.174 146.12 175.04 145.588C176.278 145.393 177.476 145.479 178.666 145.632C179.848 145.817 181.024 146.07 182.159 146.6Z" fill="white"/>
<path d="M244.863 178.975C243.625 179.168 242.426 179.083 241.236 178.934C240.052 178.749 238.877 178.496 237.743 177.964C238.981 177.768 240.18 177.854 241.369 178.007C242.553 178.192 243.727 178.445 244.863 178.975Z" fill="white"/>
<path d="M182.391 77.2424C181.153 77.4347 179.954 77.3502 178.765 77.1992C177.58 77.0142 176.405 76.7608 175.271 76.2289C176.509 76.033 177.708 76.1193 178.898 76.272C180.082 76.4589 181.255 76.7123 182.391 77.2424Z" fill="white"/>
<path d="M194.131 83.6235C195.143 84.3621 195.93 85.2696 196.665 86.2167C197.371 87.1853 198.023 88.1952 198.449 89.374C197.436 88.6354 196.649 87.7279 195.916 86.7809C195.211 85.8123 194.559 84.8024 194.131 83.6235Z" fill="white"/>
<path d="M225.565 128.598C226.576 129.336 227.364 130.244 228.098 131.191C228.805 132.159 229.457 133.169 229.883 134.348C228.869 133.61 228.082 132.702 227.349 131.755C226.643 130.785 225.992 129.775 225.565 128.598Z" fill="white"/>
<path d="M165.656 124.403C166.667 125.142 167.454 126.05 168.189 126.997C168.896 127.965 169.548 128.975 169.974 130.154C168.96 129.415 168.173 128.508 167.44 127.561C166.736 126.59 166.083 125.582 165.656 124.403Z" fill="white"/>
<path d="M195.603 157.927C196.615 158.666 197.402 159.573 198.137 160.522C198.843 161.491 199.495 162.5 199.921 163.679C198.908 162.943 198.121 162.033 197.387 161.086C196.683 160.114 196.031 159.106 195.603 157.927Z" fill="white"/>
<path d="M161.968 91.3688C162.148 91.6025 162.31 91.8361 162.471 92.0697C163.208 93.0221 163.981 93.9386 165.005 94.6754C164.574 93.4893 163.927 92.483 163.208 91.5126C162.974 91.2071 162.741 90.9196 162.489 90.6321C162.328 90.8657 162.148 91.1173 161.968 91.3688Z" fill="white"/>
<path d="M153.783 115.823C154.522 114.811 155.429 114.024 156.376 113.289C157.345 112.583 158.355 111.93 159.533 111.504C158.795 112.518 157.887 113.305 156.94 114.038C155.97 114.744 154.962 115.397 153.783 115.823Z" fill="white"/>
<path d="M229.992 157.607C230.731 156.595 231.639 155.808 232.586 155.073C233.554 154.367 234.564 153.715 235.743 153.289C235.004 154.302 234.097 155.089 233.15 155.823C232.179 156.527 231.169 157.179 229.992 157.607Z" fill="white"/>
<path d="M152.124 158.922C152.862 157.911 153.77 157.124 154.717 156.389C155.685 155.682 156.695 155.03 157.874 154.604C157.136 155.618 156.228 156.405 155.281 157.138C154.311 157.842 153.303 158.495 152.124 158.922Z" fill="white"/>
<path d="M205.905 106.89C206.644 105.878 207.551 105.091 208.5 104.356C209.469 103.649 210.479 102.997 211.657 102.571C210.921 103.585 210.011 104.372 209.064 105.105C208.092 105.81 207.082 106.462 205.905 106.89Z" fill="white"/>
<path d="M183.791 181.493C184.529 180.481 185.437 179.694 186.384 178.959C187.352 178.253 188.362 177.601 189.541 177.175C188.804 178.188 187.895 178.976 186.948 179.709C185.978 180.413 184.968 181.065 183.791 181.493Z" fill="white"/>
<path d="M190.363 135.624C191.102 134.612 192.009 133.825 192.956 133.09C193.925 132.384 194.935 131.732 196.113 131.306C195.377 132.319 194.467 133.106 193.52 133.84C192.55 134.546 191.542 135.196 190.363 135.624Z" fill="white"/>
<path d="M215.375 172.463C216.114 171.451 217.021 170.664 217.968 169.929C218.937 169.223 219.947 168.571 221.126 168.145C220.389 169.158 219.48 169.945 218.531 170.679C217.564 171.383 216.554 172.035 215.375 172.463Z" fill="white"/>
<path d="M193.162 74.1479C192.763 75.9485 184.324 87.6975 176.113 87.4046C173.439 87.3039 173.333 72.6852 173.333 72.6852L173.078 71.6087L169.527 56.5245L187.163 44.9283L189.713 43.3918C189.713 43.3918 190.412 47.5825 191.232 52.81C191.271 53.0526 191.311 53.2952 191.348 53.554C191.402 53.8487 191.458 54.1255 191.494 54.404C191.627 55.1839 191.758 55.98 191.873 56.7761C191.963 57.3817 192.053 57.9693 192.125 58.609C192.213 59.2488 192.285 59.8706 192.373 60.5103C193.1 66.8304 193.32 73.3842 193.162 74.1479Z" fill="#EB9481"/>
<path d="M191.23 52.8101C187.032 64.8933 177.474 69.907 173.078 71.6105L169.527 56.5263L187.163 44.9301L189.713 43.3937C189.713 43.3937 190.411 47.5825 191.23 52.8101Z" fill="#263238"/>
<path d="M146.706 33.3519C143.777 60.3899 159.641 65.197 165.47 65.8223C170.764 66.3902 188.86 67.6499 194.566 41.0593C200.273 14.4688 188.629 4.55998 176.59 2.62099C164.556 0.682001 149.635 6.31389 146.706 33.3519Z" fill="#EB9481"/>
<path d="M151.025 29.0963C151.667 29.0766 152.256 28.9526 152.889 28.8681C153.604 28.7729 154.183 28.7693 154.745 28.2733C155.047 28.0056 155.076 27.4143 154.846 27.0963C154.307 26.3559 153.403 26.2552 152.537 26.3343C151.599 26.4206 150.898 26.7279 150.226 27.3874C149.577 28.0253 150.179 29.1215 151.025 29.0963Z" fill="#263238"/>
<path d="M169.612 30.6382C168.983 30.5089 168.424 30.286 167.813 30.0938C167.125 29.8781 166.555 29.7757 166.085 29.1899C165.833 28.8754 165.905 28.2859 166.187 28.0128C166.845 27.3748 167.752 27.4306 168.591 27.657C169.501 27.9032 170.139 28.3255 170.688 29.0892C171.222 29.8278 170.442 30.8072 169.612 30.6382Z" fill="#263238"/>
<path d="M164.745 36.9189C164.766 36.8506 164.88 37.0213 164.869 37.0968C164.608 38.9297 164.619 41.0754 166.218 41.8697C166.267 41.8948 166.253 41.9865 166.191 41.9703C164.19 41.4617 164.204 38.6153 164.745 36.9189Z" fill="#263238"/>
<path d="M166.6 35.1758C169.584 35.2746 169.166 41.2389 166.4 41.1455C163.678 41.0556 164.096 35.0931 166.6 35.1758Z" fill="#263238"/>
<path d="M167.748 35.5729C168.246 35.9467 168.713 36.5792 169.337 36.6852C170.059 36.8092 170.65 36.2234 171.168 35.6555C171.222 35.5962 171.269 35.6519 171.265 35.731C171.202 36.8757 170.679 38.0168 169.443 38.0995C168.314 38.1768 167.583 37.1075 167.38 35.9395C167.34 35.7238 167.549 35.4237 167.748 35.5729Z" fill="#263238"/>
<path d="M154.503 35.8066C154.492 35.7347 154.352 35.8857 154.35 35.9612C154.293 37.8121 153.916 39.9236 152.207 40.4322C152.153 40.4483 152.153 40.5418 152.216 40.5364C154.275 40.3783 154.746 37.5713 154.503 35.8066Z" fill="#263238"/>
<path d="M152.974 33.7742C150.016 33.3627 149.41 39.309 152.151 39.6918C154.848 40.0656 155.454 34.1192 152.974 33.7742Z" fill="#263238"/>
<path d="M151.695 34.0383C151.194 34.3061 150.671 34.8308 150.105 34.8111C149.451 34.7877 149.034 34.0958 148.682 33.4363C148.646 33.368 148.594 33.413 148.583 33.492C148.435 34.6259 148.691 35.8479 149.762 36.1768C150.737 36.4769 151.569 35.5766 151.954 34.4714C152.026 34.2666 151.896 33.9305 151.695 34.0383Z" fill="#263238"/>
<path d="M163.892 52.0967C163.437 52.519 162.981 53.1049 162.307 53.1444C161.661 53.1821 160.914 52.873 160.328 52.6286C160.271 52.6035 160.21 52.6646 160.245 52.7221C160.709 53.4445 161.708 53.9135 162.571 53.7859C163.412 53.6601 163.845 52.9467 164.068 52.1848C164.098 52.0788 163.958 52.0356 163.892 52.0967Z" fill="#263238"/>
<path d="M156.997 48.499C156.997 48.499 158.012 50.3858 159.651 51.252C160.255 51.5737 160.927 51.7623 161.675 51.6761C163.208 51.5018 163.441 50.1522 163.339 48.9536C163.258 47.967 162.934 47.0829 162.934 47.0829C162.934 47.0829 160.487 48.7865 156.997 48.499Z" fill="#263238"/>
<path d="M159.653 51.2519C160.257 51.5736 160.929 51.7623 161.676 51.676C163.209 51.5017 163.443 50.1522 163.34 48.9535C161.734 48.8853 160.01 49.7317 159.653 51.2519Z" fill="#FF9CBD"/>
<path d="M156.724 44.7916C156.724 44.7916 156.116 47.5159 156.01 48.817C156.001 48.9392 156.31 49.0218 156.749 49.0847C156.769 49.0937 156.781 49.1027 156.799 49.0901C159.065 49.6364 161.443 49.0344 162.992 47.2751C163.092 47.1565 162.938 47.0074 162.814 47.0792C160.997 48.197 159.076 48.3659 157.036 48.2329C156.973 47.8645 158.233 43.6002 158.026 43.5679C157.32 43.4493 155.881 43.8177 155.02 43.9938C156.12 38.281 158.127 32.7893 159.137 27.0856C159.169 26.8807 158.88 26.7962 158.805 26.9741C156.294 32.5791 154.883 39.1256 153.595 44.9965C153.428 45.7261 156.184 44.9695 156.724 44.7916Z" fill="#263238"/>
<path d="M192.015 41.8088C187.634 41.7477 187.47 32.5361 187.47 32.5361C187.47 32.5361 178.629 31.7544 176.877 18.7781C176.877 18.7781 176.527 24.7119 179.828 29.6465C179.828 29.6465 164.395 26.5682 159.025 12.927C159.025 12.927 161.034 19.8096 163.273 22.3973C163.273 22.3973 156.903 19.9749 154.202 14.3772C154.202 14.3772 150.784 21.6551 148.493 23.542C148.493 23.542 151.631 -3.66851 176.627 1.54466C176.627 1.54466 192.349 4.04251 196.883 17.0817C201.421 30.1191 192.015 41.8088 192.015 41.8088Z" fill="#263238"/>
<path d="M193.537 51.0329C193.083 51.1928 192.668 51.2863 192.271 51.3312C191.805 51.4049 191.377 51.3959 190.987 51.3366C190.376 51.2647 189.859 51.0617 189.431 50.7957C189.034 50.5657 188.694 50.271 188.421 49.9816C187.717 49.2197 187.422 48.4326 187.422 48.4326L189.083 41.2014C189.083 41.2014 195.205 32.8434 199.002 35.043C202.817 37.2443 198.096 49.4515 193.537 51.0329Z" fill="#EB9481"/>
<path d="M197.57 38.504C197.643 38.4986 197.654 38.601 197.591 38.6244C194.394 39.841 192.662 42.745 191.427 45.7676C192.396 44.6157 193.693 43.9993 195.241 45.1548C195.322 45.2141 195.241 45.3435 195.151 45.3219C193.859 45.0164 192.917 45.2213 192.017 46.242C191.381 46.9644 190.935 47.8863 190.473 48.7273C190.319 49.0076 189.81 48.8441 189.925 48.5206C189.934 48.4972 189.945 48.4721 189.952 48.4469C189.959 44.4054 193.221 38.8167 197.57 38.504Z" fill="#263238"/>
<path d="M193.184 49.8792C193.031 50.5585 192.357 50.9844 191.68 50.8334C191 50.6807 190.574 50.0068 190.725 49.3293C190.878 48.65 191.552 48.2242 192.229 48.3751C192.909 48.5279 193.336 49.2017 193.184 49.8792Z" fill="white"/>
<path d="M195.814 48.0336C195.707 48.5134 195.23 48.8153 194.751 48.7075C194.271 48.5997 193.969 48.1235 194.077 47.6436C194.184 47.1638 194.661 46.862 195.14 46.968C195.618 47.0776 195.92 47.5538 195.814 48.0336Z" fill="white"/>
<path d="M144.213 210.393L84.9685 219.002L61.5892 136.781L120.833 128.17L144.213 210.393Z" fill="#263238"/>
<path d="M141.303 210.815L82.0587 219.425L58.6776 137.204L117.922 128.594L141.303 210.815Z" fill="#455A64"/>
<path d="M91.676 171.471C92.4164 174.612 95.5971 176.785 98.7796 176.323C101.962 175.861 103.941 172.937 103.2 169.796C102.458 166.653 99.2792 164.482 96.0967 164.944C92.9142 165.408 90.9356 168.33 91.676 171.471Z" fill="white"/>
<path d="M207.359 82.5059C224.774 106.067 258.017 161.834 246.859 174.116C228.515 194.31 184.391 211.392 170.653 215.137C164.723 216.754 144.869 173.369 150.506 169.992C157.27 165.94 204.525 151.481 204.396 147.459C204.322 145.181 199.405 126.057 195.351 101.515C190.648 73.0482 199.058 71.2763 207.359 82.5059Z" fill="#EB9481"/>
<path d="M172.018 167.53C172.018 167.53 154.215 161.825 142.397 158.642C135.804 156.867 124.228 154.831 118.788 155.74C110.651 157.102 77.4852 167.997 79.9543 176.095C82.188 183.425 109.492 170.447 109.492 170.447C109.492 170.447 80.7827 181.107 85.0956 189.439C89.4085 197.77 118.308 179.006 118.308 179.006C118.308 179.006 89.0562 190.62 94.8642 198.509C99.2525 204.47 126.386 188.949 126.386 188.949C126.386 188.949 101.312 199.106 105.562 205.431C110.258 212.42 136.201 199.665 136.201 199.665C149.708 213.924 161.972 215.187 170.803 215.049C172.94 215.013 172.018 167.53 172.018 167.53Z" fill="#EB9481"/>
<path d="M119.186 166.125C115.768 167.255 112.301 168.377 108.997 169.805C105.69 171.236 102.432 172.783 99.2747 174.514C91.5295 178.76 87.346 182.631 87.6299 182.419C94.3598 177.43 106.114 172.129 109.421 170.697C112.718 169.27 115.946 167.676 119.245 166.247C119.328 166.213 119.267 166.098 119.186 166.125Z" fill="#263238"/>
<path d="M124.566 177.967C120.264 179.599 115.934 181.062 111.702 182.884C107.492 184.697 103.657 186.787 99.5834 188.886C99.2689 189.048 99.4594 189.163 99.781 189.014C103.936 187.08 107.927 185.612 112.103 183.727C116.265 181.847 120.386 179.793 124.612 178.068C124.679 178.039 124.632 177.942 124.566 177.967Z" fill="#263238"/>
<path d="M131.012 187.299C124.311 189.458 118.014 192.849 111.92 196.322C111.616 196.495 111.879 196.617 112.199 196.459C118.488 193.339 123.401 190.848 131.089 187.533C131.208 187.481 131.154 187.254 131.012 187.299Z" fill="#263238"/>
<path d="M251.175 166.121L202.85 146.475C202.85 146.475 196.544 120.538 193.913 96.4688C191.282 72.3995 197.626 66.1818 214.606 91.2143C231.584 116.247 249.31 148.078 251.175 166.121Z" fill="#6FD943"/>
<path d="M212.194 90.1828C212.446 89.6437 212.626 89.1046 212.769 88.5655C212.554 88.26 212.338 87.9545 212.122 87.667C212.05 88.4936 212.05 89.3382 212.194 90.1828Z" fill="white"/>
<path d="M211.903 124.094C212.095 125.333 212.011 126.531 211.862 127.721C211.677 128.905 211.423 130.08 210.891 131.214C210.695 129.976 210.782 128.778 210.934 127.588C211.119 126.405 211.373 125.23 211.903 124.094Z" fill="white"/>
<path d="M216.722 149.497C215.483 149.689 214.285 149.605 213.095 149.454C211.911 149.269 210.736 149.016 209.602 148.484C210.84 148.288 212.039 148.374 213.228 148.527C214.411 148.714 215.586 148.967 216.722 149.497Z" fill="white"/>
<path d="M223.695 110.759C224.827 111.298 225.996 111.549 227.182 111.729C227.361 111.747 227.541 111.765 227.721 111.783C227.523 111.46 227.325 111.118 227.128 110.795C225.996 110.633 224.863 110.579 223.695 110.759Z" fill="white"/>
<path d="M194.131 83.6237C195.143 84.3622 195.93 85.2697 196.665 86.2168C197.371 87.1854 198.023 88.1953 198.449 89.3741C197.436 88.6356 196.649 87.7281 195.916 86.781C195.211 85.8124 194.559 84.8025 194.131 83.6237Z" fill="white"/>
<path d="M225.564 128.598C226.576 129.336 227.363 130.244 228.098 131.191C228.804 132.159 229.456 133.169 229.882 134.348C228.869 133.61 228.081 132.702 227.348 131.755C226.642 130.785 225.992 129.775 225.564 128.598Z" fill="white"/>
<path d="M229.992 157.607C230.731 156.595 231.639 155.808 232.586 155.073C233.554 154.367 234.564 153.715 235.743 153.289C235.004 154.302 234.097 155.089 233.15 155.823C232.179 156.527 231.169 157.179 229.992 157.607Z" fill="white"/>
<path d="M205.905 106.89C206.644 105.878 207.551 105.091 208.5 104.356C209.469 103.65 210.479 102.997 211.657 102.571C210.921 103.585 210.011 104.372 209.064 105.105C208.092 105.81 207.082 106.462 205.905 106.89Z" fill="white"/>
<path d="M194.376 111.384C195.133 112.73 195.627 114.272 196.124 115.727C196.295 116.227 196.459 116.73 196.622 117.233C196.207 114.441 195.806 111.646 195.422 108.845C195.397 108.662 195.672 108.584 195.708 108.773C196.931 115.095 202.554 144.726 202.808 146.264C202.942 146.28 204.441 147.134 204.535 147.129C204.637 147.121 204.497 147.438 204.429 147.366C204.369 147.303 202.491 146.496 202.484 146.482C201.87 145.13 197.436 122.517 197.012 119.771C196.949 119.647 196.881 119.519 196.836 119.399C196.691 119.007 196.545 118.615 196.398 118.225C196.124 117.501 195.882 116.766 195.628 116.037C195.111 114.541 194.509 113.007 194.22 111.447C194.203 111.353 194.327 111.298 194.376 111.384Z" fill="#263238"/>
<path d="M203.742 141.031C205.649 141.378 207.55 142.138 209.399 142.715C211.277 143.301 213.164 143.854 215.035 144.469C218.638 145.651 222.203 146.927 225.758 148.248C232.886 150.897 239.992 153.677 246.817 157.037C246.959 157.107 246.851 157.343 246.702 157.291C239.415 154.75 232.254 151.864 225.024 149.161C221.472 147.833 217.912 146.525 214.357 145.2C212.578 144.537 210.813 143.833 209.031 143.181C207.263 142.532 205.361 142.021 203.669 141.195C203.568 141.146 203.649 141.015 203.742 141.031Z" fill="#263238"/>
</svg>
