<svg width="418" height="566" viewBox="0 0 418 566" fill="none" xmlns="http://www.w3.org/2000/svg">
<path d="M216.921 351.77L222.137 383.045L257.468 573.844H263.162L237.47 383.045L233.673 351.77H216.921Z" fill="#DBDBDB"/>
<path d="M233.673 351.77H216.921L222.137 383.045H237.47L233.673 351.77Z" fill="#A6A6A6"/>
<path d="M105.972 573.844H111.666L146.997 383.045L152.213 351.77H135.461L131.664 383.045L105.972 573.844Z" fill="#DBDBDB"/>
<path d="M135.461 351.77L131.664 383.045H146.997L152.213 351.77H135.461Z" fill="#A6A6A6"/>
<path d="M-0.000488281 573.844H5.69385L41.0247 383.045L46.2409 351.77H29.4885L25.6914 383.045L-0.000488281 573.844Z" fill="#DBDBDB"/>
<path d="M25.6917 383.045H41.0249L46.2411 351.77H29.4887L25.6917 383.045Z" fill="#A6A6A6"/>
<path d="M9.03296 366.465H267.921V339.186H171.005L138.434 149.681H18.9008L9.03296 366.465Z" fill="#DBDBDB"/>
<path d="M9.03296 366.465H23.1429L32.3419 149.681H18.9008L9.03296 366.465Z" fill="#A6A6A6"/>
<path d="M269.272 617.224C264.086 617.799 122.061 587.283 117.523 582.87C116.969 582.382 119.52 569.747 123.291 552.514L123.365 552.176C125.718 541.25 165.316 452.534 165.316 452.534L257.435 475.96L217.275 558.333C217.275 558.333 234.749 570.225 249.75 581.548C249.765 581.571 249.785 581.576 249.783 581.596C259.048 588.547 267.039 594.798 268.748 596.838C273.173 602.161 274.45 616.688 269.272 617.224Z" fill="#D3766A"/>
<path d="M269.264 617.217C264.091 617.797 122.071 587.278 117.516 582.873C116.966 582.372 119.525 569.755 123.291 552.511L123.368 552.183C124.23 548.114 130.308 533.213 137.554 516.133C152.712 519.843 207.048 533.2 226.797 538.808L217.285 558.333C217.285 558.333 234.754 570.235 249.76 581.548C249.76 581.568 249.78 581.568 249.78 581.588C259.042 588.539 267.046 594.798 268.747 596.827C273.175 602.171 274.46 616.698 269.264 617.217Z" fill="#EBEBEB"/>
<path d="M269.747 617.873C264.414 618.42 122.284 587.524 117.622 582.995C115.847 581.286 118.579 559.365 125.906 536.064L217.514 556.09C217.514 556.09 264.754 591.382 269.32 596.891C273.857 602.389 275.08 617.326 269.747 617.873Z" fill="#A6A6A6"/>
<path d="M117.627 583C120.737 586.026 185.377 600.841 229.418 610.167C251.211 614.788 267.984 618.069 269.736 617.881C275.085 617.319 273.856 602.382 269.332 596.878C267.607 594.811 259.853 588.516 250.832 581.461C235.891 569.801 217.513 556.077 217.513 556.077L125.895 536.062C118.588 559.363 115.839 581.288 117.627 583Z" fill="#FFC727"/>
<path d="M224.457 560.052C214.95 557.85 203.147 558.742 195.49 565.09C195.192 565.337 195.553 565.747 195.871 565.665C205.479 563.188 214.409 561.728 224.361 561.24C225.062 561.202 225.139 560.21 224.457 560.052Z" fill="#263238"/>
<path d="M231.181 564.462C221.674 562.26 209.871 563.152 202.214 569.5C201.916 569.747 202.28 570.157 202.595 570.075C212.201 567.598 221.133 566.138 231.087 565.65C231.786 565.612 231.863 564.62 231.181 564.462Z" fill="#263238"/>
<path d="M220.113 560.393L122.315 536.575C122.315 536.575 209.77 348.558 202.692 339.123C199.152 334.405 107.857 331.963 79.1103 307.502C41.7677 275.727 67.6606 228.143 67.6606 228.143L169.673 226.368C169.673 226.368 168.188 247.237 172.127 250.432C174.724 252.561 296.113 263.99 308.969 304.293C324.732 353.716 220.113 560.393 220.113 560.393Z" fill="#37474F"/>
<path d="M224.401 540.144C221.845 538.918 219.042 538.185 216.359 537.328C213.516 536.42 210.67 535.505 207.814 534.643C202.188 532.946 196.542 531.329 190.858 529.831C179.416 526.817 167.953 523.862 156.43 521.146C150.423 519.729 137.554 516.636 136.76 516.766C136.379 516.83 136.303 517.455 136.643 517.572C147.791 521.324 159.105 524.515 170.415 527.74C181.707 530.96 193.022 534.142 204.464 536.82C207.633 537.562 210.82 538.216 213.999 538.92C217.326 539.658 220.693 540.655 224.119 540.912C224.449 540.935 224.762 540.317 224.401 540.144Z" fill="#263238"/>
<path d="M220.235 331.053C218.206 329.313 215.131 329.067 212.567 328.616C197.875 326.033 183.19 323.426 168.498 320.842C154.749 318.423 140.926 316.241 127.249 313.489C115.921 311.21 104.413 308.181 94.6646 302.034C84.9061 295.88 78.2224 286.724 74.9238 276.088C71.6252 265.455 71.521 254.064 72.7316 243.107C73.0291 240.427 73.5632 237.754 74.1075 235.109C74.1482 234.908 73.8201 234.837 73.7819 235.038C69.7992 255.467 69.1761 279.232 84.6391 295.732C92.1773 303.777 102.61 308.573 113.276 311.724C125.311 315.282 137.91 317.045 150.278 319.222C164.97 321.806 179.66 324.392 194.355 326.961C201.423 328.197 208.607 329.184 215.614 330.707C216.957 330.999 218.475 331.404 219.431 332.414C220.749 333.807 220.36 335.76 219.991 337.424C219.241 340.814 218.264 344.163 217.229 347.487C208.864 374.273 149.09 501.499 147.462 504.431C147.292 504.739 147.785 504.988 147.966 504.683C161.758 481.26 206.247 383.067 215.474 357.742C217.832 351.274 220.014 344.725 221.504 338.021C222.038 335.603 222.366 332.879 220.235 331.053Z" fill="#263238"/>
<path d="M415.071 624.981C410.107 626.556 264.719 624.335 259.376 620.894C258.732 620.523 258.664 607.647 258.857 590.022L258.86 589.676C258.943 578.511 256.606 483.076 256.606 483.076L347.611 483.399L352.141 577.402C352.141 577.402 371.683 585.65 388.687 593.821C388.708 593.842 388.728 593.842 388.728 593.862C399.221 598.867 408.324 603.435 410.412 605.101C415.831 609.46 420.035 623.448 415.071 624.981Z" fill="#D3766A"/>
<path d="M415.076 624.976C410.109 626.548 264.721 624.338 259.37 620.887C258.727 620.528 258.661 607.642 258.852 590.03L258.857 589.684C258.862 588.908 258.867 588.112 258.849 587.319C258.864 586.746 258.857 586.177 258.831 585.607C258.834 584.77 258.813 583.916 258.793 583.059C258.694 575.64 258.457 563.595 258.167 550.391L350.874 550.886L352.146 577.405C352.146 577.405 371.68 585.658 388.69 593.822C388.713 593.842 388.733 593.839 388.733 593.86C399.219 598.873 408.329 603.435 410.409 605.096C415.821 609.46 420.045 623.445 415.076 624.976Z" fill="#EBEBEB"/>
<path d="M356.563 575.103L256.458 575.009C256.458 575.009 250.355 374.214 242.567 363.95C234.93 353.881 89.5857 366.386 57.9375 322.22C29.5116 282.556 54.588 227.184 54.588 227.184L168.259 225.205C168.259 225.205 164.497 242.83 157.3 260.119C157.3 260.119 293.458 269.26 321.451 305.346C344.666 335.27 356.563 575.103 356.563 575.103Z" fill="#37474F"/>
<path d="M177.373 252.726C174.085 253.255 170.827 254.516 167.709 255.638C164.43 256.818 161.203 258.163 158.044 259.626C151.795 262.517 145.832 265.842 139.946 269.374C139.766 269.483 139.939 269.733 140.122 269.641C146.305 266.587 152.691 263.848 159.082 261.236C162.157 259.979 165.234 258.728 168.309 257.472C171.404 256.205 174.697 255.137 177.643 253.563C178.032 253.354 177.828 252.652 177.373 252.726Z" fill="#263238"/>
<path d="M170.898 225.185C169.537 230.249 168.332 235.353 166.788 240.368C166.079 242.67 165.379 245.01 164.461 247.24C163.685 249.122 162.518 251.266 160.28 251.663C157.698 252.121 156.989 249.951 157.223 247.871C157.485 245.549 158.121 243.227 158.617 240.946C159.189 238.316 159.766 235.686 160.29 233.044C160.552 231.724 160.822 230.404 161.066 229.081C161.127 228.748 161.412 226.218 161.605 225.493C161.625 225.554 161.666 225.615 161.747 225.602C161.778 225.6 161.808 225.595 161.836 225.592C161.905 225.584 161.984 225.539 161.997 225.462C162.025 225.264 162.022 225.221 161.872 225.081C161.806 225.02 161.712 225.022 161.635 225.061C161.14 225.32 161.096 225.981 160.931 226.464C160.496 227.744 160.054 229.023 159.654 230.315C158.907 232.731 158.179 235.155 157.518 237.594C156.859 240.03 156.216 242.474 155.572 244.916C155.089 246.742 154.519 248.664 155.003 250.552C155.529 252.614 157.192 253.67 159.036 253.848C158.945 254.013 158.835 254.168 158.756 254.338C158.525 254.834 158.352 255.368 158.151 255.877C157.948 256.401 157.762 256.922 157.602 257.459C157.526 257.713 157.475 257.978 157.444 258.242C157.406 258.537 157.465 258.825 157.424 259.12C157.36 259.572 157.986 259.86 158.225 259.412C158.365 259.153 158.563 258.954 158.718 258.708C158.881 258.448 158.998 258.146 159.1 257.861C159.283 257.355 159.438 256.851 159.575 256.332C159.713 255.821 159.881 255.307 159.985 254.789C160.046 254.478 160.061 254.165 160.092 253.853C161.147 253.761 162.203 253.418 163.095 252.774C164.657 251.648 165.583 249.908 166.249 248.171C167.058 246.065 167.691 243.883 168.324 241.724C169.893 236.378 171.239 230.941 171.829 225.399C171.895 224.811 171.061 224.585 170.898 225.185Z" fill="#263238"/>
<path d="M103.172 236.828C102.671 239.343 102.343 241.887 101.719 244.376C101.109 246.815 100.402 249.252 99.55 251.62C98.7362 253.883 97.7392 256.167 96.3074 258.128C94.9188 260.03 93.0927 261.663 91.2133 263.09C87.523 265.887 83.3622 268.097 78.9497 269.59C76.7269 270.343 74.4583 270.976 72.1567 271.452C70.9588 271.701 69.7482 271.889 68.53 272.029C67.5178 272.144 66.5157 272.169 65.6078 272.657C65.2187 272.866 65.2772 273.461 65.651 273.647C67.1922 274.41 69.3794 274.026 71.0376 273.878C72.9807 273.705 74.911 273.408 76.8057 272.955C80.6257 272.044 84.3388 270.518 87.7392 268.591C91.0759 266.699 94.4406 264.328 96.9228 261.411C99.4966 258.387 100.956 254.819 101.913 251.03C103.057 246.49 103.868 241.556 103.67 236.871C103.657 236.597 103.225 236.548 103.172 236.828Z" fill="#263238"/>
<path d="M351.908 554.099C349.116 553.819 346.214 553.821 343.396 553.745C340.41 553.664 337.42 553.58 334.431 553.524C328.549 553.414 322.666 553.346 316.781 553.343C304.932 553.341 293.078 553.369 281.232 553.526C275.057 553.608 261.809 553.753 261.074 553.926C260.72 554.007 260.812 554.332 261.175 554.345C272.935 554.76 284.706 554.869 296.483 554.996C308.243 555.123 320.011 555.228 331.771 555.062C335.029 555.017 338.279 554.923 341.535 554.859C344.942 554.79 348.457 554.846 351.837 554.523C352.163 554.49 352.3 554.137 351.908 554.099Z" fill="#263238"/>
<path d="M198.706 358.489C205.866 358.484 213.025 358.637 220.184 359.023C223.762 359.242 227.338 359.547 230.906 359.982C234.475 360.491 238.045 360.875 241.565 362.37C242.003 362.609 242.445 362.805 242.867 363.217C243.292 363.545 243.577 364.196 243.75 364.619C244.096 365.532 244.304 366.419 244.526 367.309C244.912 369.087 245.21 370.867 245.482 372.645C246.024 376.203 246.443 379.764 246.845 383.324C247.633 390.45 248.292 397.582 248.897 404.718C249.973 419.001 250.937 433.284 251.662 447.582L252.633 469.034L253.234 490.502L250.197 447.671C249.169 433.398 248.221 419.12 246.998 404.871C246.451 397.739 245.851 390.616 245.121 383.507C244.749 379.957 244.36 376.404 243.852 372.882C243.602 371.119 243.307 369.369 242.969 367.643C242.778 366.791 242.595 365.931 242.326 365.163C242.112 364.451 241.687 364.069 240.914 363.675C237.86 362.279 234.22 361.735 230.744 361.17C227.221 360.649 223.671 360.272 220.113 359.947C213.002 359.257 205.858 358.792 198.706 358.489Z" fill="#263238"/>
<path d="M161.114 260.406C168.169 260.676 175.221 261.114 182.266 261.645C189.303 262.255 196.335 262.96 203.355 263.797C217.391 265.483 231.353 267.835 245.176 270.903C259.009 274.038 272.442 278.596 285.723 283.4C292.343 285.882 298.932 288.52 305.217 291.833C308.322 293.553 311.336 295.468 314.065 297.741C316.804 300.002 319.202 302.624 321.453 305.341C319.085 302.726 316.583 300.219 313.777 298.103C310.982 295.974 307.931 294.217 304.792 292.652C298.49 289.552 291.885 287.072 285.232 284.771C271.872 280.277 258.51 275.709 244.751 272.759C231.04 269.562 217.124 267.233 203.166 265.249C196.188 264.237 189.189 263.372 182.18 262.571C175.17 261.737 168.151 260.986 161.114 260.406Z" fill="#263238"/>
<path d="M65.3428 233.168C62.0315 242.222 59.8773 251.686 58.7914 261.238C57.7283 270.783 57.8707 280.519 59.9765 289.852C62.0213 299.166 66.2355 308.062 72.6343 315.074C75.8413 318.51 79.8749 321.134 84.0662 323.357C88.2803 325.572 92.7336 327.345 97.2529 328.914C115.455 334.944 134.552 338.047 153.601 340.633C172.691 343.166 191.887 344.876 211.086 346.849C220.682 347.897 230.285 348.932 239.85 350.758C242.239 351.236 244.627 351.773 246.999 352.508C248.185 352.894 249.37 353.294 250.54 353.879C251.145 354.166 251.661 354.456 252.323 354.939C252.953 355.461 253.365 356.035 253.731 356.602C255.123 358.896 255.83 361.251 256.534 363.612C257.208 365.972 257.752 368.347 258.246 370.728C260.171 380.252 261.379 389.843 262.475 399.441C263.561 409.039 264.421 418.653 265.153 428.276C266.631 447.519 267.74 466.781 268.688 486.046C269.563 505.316 270.184 524.594 270.906 543.867C269.764 524.615 268.727 505.357 267.432 486.117C266.237 466.873 264.901 447.638 263.187 428.442C261.341 409.281 259.718 390.008 255.972 371.203C255.479 368.863 254.934 366.539 254.276 364.265C253.607 362.02 252.857 359.718 251.725 357.884C251.445 357.439 251.125 357.035 250.817 356.793C250.502 356.574 249.975 356.244 249.487 356.03C248.497 355.537 247.389 355.165 246.282 354.809C244.044 354.128 241.72 353.612 239.38 353.154C229.988 351.389 220.387 350.415 210.819 349.372C191.661 347.325 172.434 345.537 153.293 342.92C134.194 340.219 114.984 337.144 96.6146 330.743C92.0469 329.095 87.5352 327.241 83.2371 324.914C78.9619 322.579 74.8164 319.825 71.4669 316.155C64.9282 308.805 60.7141 299.639 58.7812 290.114C56.8381 280.564 56.9119 270.74 58.1835 261.169C59.4806 251.587 61.8407 242.154 65.3428 233.168Z" fill="#263238"/>
<path d="M156.052 123.948C161.5 166.309 175.757 220.668 189.854 232.739C201.225 242.479 291.015 273.176 294.56 273.909C303.342 275.661 327.531 214.961 318.24 212.634C305.979 209.564 225.002 191.912 222.192 188.453C219.28 184.839 201.976 156.288 182.456 123.267C168.982 100.449 152.672 97.6665 156.052 123.948Z" fill="#D3766A"/>
<path d="M287.652 200.737L257.673 265.368C257.673 265.368 191.782 240.646 183.784 228.479C175.785 216.312 157.995 156.996 155.645 125.777C153.295 94.5587 168.539 102.171 180.696 118.809C192.85 135.447 222.484 186.373 223.57 187.209C224.659 188.049 287.652 200.737 287.652 200.737Z" fill="#FFC727"/>
<path d="M200.406 210.04C199.694 211.668 199.058 213.372 198.829 215.228C200.075 213.804 200.915 212.227 201.678 210.6C202.39 208.972 203 207.268 203.255 205.411C202.008 206.836 201.169 208.412 200.406 210.04ZM278.967 198.977C278.153 200.096 277.543 201.317 276.958 202.538C276.246 204.165 275.635 205.869 275.407 207.726C276.627 206.302 277.492 204.725 278.23 203.097C278.789 201.825 279.298 200.477 279.577 199.079C279.374 199.053 279.171 199.002 278.967 198.977ZM239.572 253.53C239.013 254.827 238.504 256.175 238.199 257.624C238.377 257.701 238.529 257.777 238.707 257.853C239.572 256.658 240.259 255.386 240.844 254.089C241.556 252.462 242.192 250.758 242.421 248.901C241.174 250.325 240.335 251.902 239.572 253.53ZM177.975 160.294C177.263 161.947 176.652 163.626 176.398 165.482C177.644 164.084 178.483 162.507 179.246 160.879C179.958 159.226 180.569 157.547 180.823 155.691C179.577 157.09 178.738 158.692 177.975 160.294ZM157.4 134.887C157.145 134.785 156.866 134.658 156.611 134.556C156.688 135.091 156.764 135.625 156.84 136.184C158.493 136.871 160.146 137.481 162.003 137.736C160.604 136.489 159.027 135.65 157.4 134.887ZM172.583 194.094C171.82 193.763 171.032 193.433 170.218 193.178L170.675 194.704C171.133 194.933 171.566 195.162 172.023 195.366C173.651 196.078 175.355 196.688 177.212 196.917C175.787 195.696 174.211 194.831 172.583 194.094ZM229.323 228.173C227.67 227.461 225.991 226.826 224.135 226.597C225.533 227.843 227.11 228.682 228.738 229.445C230.391 230.157 232.07 230.768 233.926 231.022C232.527 229.776 230.925 228.936 229.323 228.173ZM201.703 179.928C201.042 178.275 200.279 176.647 199.134 175.147C199.262 177.029 199.77 178.758 200.381 180.437C201.042 182.09 201.805 183.718 202.949 185.218C202.822 183.336 202.314 181.607 201.703 179.928ZM255.722 217.39C255.061 215.737 254.323 214.109 253.179 212.634C253.28 214.491 253.814 216.22 254.425 217.899C255.086 219.552 255.823 221.18 256.993 222.68C256.866 220.798 256.332 219.069 255.722 217.39ZM187.69 137.481C187.003 135.803 186.266 134.175 185.121 132.7C185.248 134.582 185.757 136.286 186.367 137.964C187.029 139.643 187.792 141.271 188.936 142.746C188.809 140.889 188.3 139.16 187.69 137.481ZM230.747 194.069C229.094 194.73 227.441 195.493 225.966 196.637C227.848 196.51 229.552 195.976 231.256 195.366C232.909 194.73 234.536 193.967 236.012 192.822C234.155 192.924 232.426 193.458 230.747 194.069ZM171.82 108.921C171.26 109.099 170.701 109.277 170.141 109.48C168.488 110.141 166.861 110.904 165.36 112.049C167.242 111.922 168.946 111.413 170.65 110.803C171.388 110.497 172.125 110.192 172.837 109.836C172.507 109.505 172.151 109.2 171.82 108.921Z" fill="white"/>
<path d="M248.692 248.85C249.771 246.696 250.933 244.58 251.965 242.403C254.112 237.876 256.261 233.349 258.4 228.817C260.541 224.282 262.657 219.732 264.743 215.175C266.828 210.612 268.738 205.951 270.892 201.424C270.989 201.218 270.681 201.055 270.572 201.258C268.217 205.683 265.669 210.007 263.359 214.463C261.009 218.992 258.748 223.578 256.571 228.191C254.432 232.728 252.365 237.293 250.353 241.887C249.343 244.191 248.499 246.561 247.558 248.891C246.648 251.149 245.668 253.385 244.923 255.702C244.872 255.859 245.114 255.933 245.19 255.798C246.48 253.545 247.53 251.169 248.692 248.85Z" fill="#263238"/>
<path d="M229.023 253.807C210.182 245.704 188.201 235.18 183.789 228.466C175.787 216.307 157.985 157.001 155.65 125.785C154.534 110.963 157.387 104.882 161.988 104.399L229.023 253.807Z" fill="#263238"/>
<path d="M172.123 109.172C175.213 111.586 177.55 114.798 180.012 117.814C182.433 120.886 184.752 124.035 186.985 127.24C191.461 133.646 195.856 140.108 200.027 146.713C204.229 153.3 208.341 159.938 212.4 166.609C216.477 173.27 220.355 180.048 224.315 186.774L223.753 186.368C232.469 188.234 241.164 190.208 249.852 192.202C258.547 194.163 267.222 196.233 275.885 198.351C267.11 196.757 258.346 195.111 249.605 193.356C240.856 191.637 232.113 189.895 223.392 188.049L223.026 187.972L222.83 187.644L210.793 167.575C206.802 160.874 202.756 154.206 198.626 147.593C194.498 140.978 190.406 134.338 186.093 127.847C183.931 124.605 181.782 121.352 179.516 118.183C178.392 116.591 177.234 115.024 176.029 113.496C174.811 111.985 173.638 110.401 172.123 109.172Z" fill="#263238"/>
<path d="M182.158 255.557C178.722 258.336 41.1701 261.666 40.5673 260.717C38.9524 258.151 74.5858 134.785 132.712 95.833C142.956 88.9687 158.755 93.4092 165.655 98.5491C169.103 101.118 177.704 119.89 179.297 136.123C180.871 152.331 184.319 253.781 182.158 255.557Z" fill="#FFC727"/>
<path d="M135.807 114.745C135.095 116.398 134.485 118.076 134.256 119.933C135.477 118.534 136.341 116.957 137.079 115.329C137.791 113.676 138.427 111.998 138.656 110.141C137.409 111.54 136.57 113.117 135.807 114.745ZM121.489 179.521C120.777 181.174 120.166 182.853 119.912 184.735C121.158 183.311 121.997 181.734 122.76 180.106C123.472 178.453 124.083 176.774 124.337 174.918C123.091 176.317 122.252 177.919 121.489 179.521ZM180.492 156.123V156.149C179.424 157.42 178.661 158.844 177.974 160.294C177.262 161.947 176.652 163.626 176.397 165.482C177.644 164.084 178.483 162.507 179.246 160.879C179.755 159.709 180.212 158.488 180.543 157.242C180.543 157.217 180.543 157.217 180.543 157.191C180.645 156.708 180.746 156.2 180.823 155.691C180.696 155.818 180.568 155.971 180.492 156.123ZM141.758 241.398C141.046 243.052 140.411 244.73 140.182 246.587C141.428 245.188 142.267 243.586 143.03 241.983C143.742 240.33 144.353 238.652 144.581 236.795C143.361 238.194 142.521 239.771 141.758 241.398ZM68.64 207.421C67.9279 209.074 67.3175 210.752 67.0886 212.634C68.3094 211.21 69.1741 209.633 69.9116 208.006C70.6237 206.352 71.2595 204.674 71.4884 202.817C70.2422 204.216 69.403 205.818 68.64 207.421ZM91.3003 151.444C90.5882 153.097 89.9778 154.775 89.749 156.632C90.9697 155.233 91.8344 153.631 92.572 152.029C93.2841 150.375 93.9199 148.697 94.1488 146.84C92.9026 148.239 92.0633 149.816 91.3003 151.444ZM157.399 134.887C155.746 134.175 154.068 133.539 152.211 133.31C153.61 134.556 155.212 135.396 156.814 136.159C158.468 136.871 160.146 137.481 162.003 137.736C160.604 136.489 159.027 135.65 157.399 134.887ZM172.583 194.094C170.955 193.382 169.251 192.746 167.394 192.517C168.819 193.763 170.395 194.603 172.023 195.366C173.651 196.078 175.355 196.688 177.211 196.917C175.787 195.696 174.21 194.832 172.583 194.094ZM165.487 255.87C166.046 256.378 166.657 256.811 167.267 257.192C168.107 257.141 168.92 257.09 169.683 257.039C168.361 256.505 166.962 256.048 165.487 255.87ZM102.414 207.09C100.787 206.378 99.0827 205.742 97.2261 205.513C98.6503 206.759 100.227 207.599 101.855 208.362C103.483 209.074 105.186 209.684 107.043 209.913C105.619 208.692 104.042 207.853 102.414 207.09ZM103.991 249.562C102.338 248.85 100.659 248.214 98.8029 247.985C100.202 249.232 101.779 250.071 103.406 250.834C105.059 251.546 106.738 252.156 108.594 252.385C107.196 251.165 105.619 250.3 103.991 249.562ZM121.819 143.941C121.158 142.263 120.395 140.635 119.251 139.16C119.378 141.016 119.912 142.746 120.522 144.424C121.158 146.103 121.921 147.731 123.066 149.206C122.964 147.349 122.43 145.62 121.819 143.941ZM145.955 205.055C145.294 203.377 144.531 201.749 143.386 200.274C143.513 202.131 144.022 203.86 144.632 205.539C145.294 207.217 146.057 208.845 147.201 210.32C147.074 208.463 146.565 206.734 145.955 205.055ZM81.9157 230.539C81.2545 228.886 80.4915 227.258 79.3471 225.757C79.4742 227.639 79.9829 229.343 80.5933 231.047C81.2545 232.701 82.0175 234.328 83.1619 235.803C83.0348 233.947 82.5261 232.217 81.9157 230.539ZM107.323 119.322H107.297C106.738 120.009 106.153 120.696 105.593 121.382C105.746 121.332 105.899 121.281 106.051 121.23C107.73 120.569 109.357 119.806 110.833 118.661C109.586 118.737 108.442 118.992 107.323 119.322ZM171.82 226.266C170.141 226.927 168.513 227.69 167.038 228.835C168.895 228.708 170.624 228.174 172.303 227.563C173.981 226.927 175.609 226.164 177.084 225.02C175.202 225.122 173.498 225.656 171.82 226.266ZM85.2983 181.123C83.6452 181.785 82.0175 182.522 80.5424 183.667C82.399 183.539 84.1284 183.031 85.8069 182.42C87.4855 181.759 89.1131 181.022 90.5882 179.852C88.7062 179.979 87.0022 180.513 85.2983 181.123ZM119.022 226.266C117.343 226.927 115.716 227.69 114.24 228.835C116.097 228.708 117.826 228.174 119.505 227.563C121.184 226.902 122.811 226.164 124.286 225.02C122.404 225.122 120.7 225.656 119.022 226.266ZM61.7986 248.214C60.1455 248.876 58.5179 249.639 57.0173 250.783C58.8993 250.656 60.6287 250.147 62.3073 249.537C63.9604 248.876 65.5881 248.113 67.0886 246.968C65.2066 247.095 63.4772 247.604 61.7986 248.214ZM145.344 159.938C143.691 160.599 142.064 161.362 140.563 162.507C142.445 162.38 144.149 161.846 145.853 161.235C147.506 160.599 149.134 159.836 150.609 158.692C148.752 158.794 147.023 159.328 145.344 159.938ZM171.82 108.921C171.26 109.099 170.701 109.277 170.141 109.48C168.488 110.141 166.86 110.904 165.36 112.049C167.242 111.922 168.946 111.413 170.65 110.803C171.209 110.574 171.769 110.345 172.303 110.09C172.15 109.683 171.972 109.302 171.82 108.921Z" fill="white"/>
<path d="M119.19 103.88C89.8512 124.216 11.4504 206.365 26.303 227.545C41.2624 248.876 148.939 246.05 180.666 238.418C190.104 236.147 165.966 174.29 155.599 174.557C150.03 174.702 103.435 181.668 102.702 178.995C101.876 175.976 115.342 160.388 133.394 125.914C154.213 86.1685 132.151 94.8969 119.19 103.88Z" fill="#D3766A"/>
<path d="M197.434 170.33C217.836 171.634 222.869 175.037 240.687 167.186C252.378 162.034 260.755 167.133 252.536 177.413C239.092 194.226 212.408 197.955 202.777 196.64L197.434 170.33Z" fill="#D3766A"/>
<path d="M140.813 178.372C140.813 178.372 165.653 170.762 187.535 170.048C202.667 169.554 235.712 172.072 259.961 209.409C265.714 218.265 267.495 234.877 252.734 223.756C242.25 215.854 238.039 207.741 231.085 204.231C231.085 204.231 230.788 225.628 221.502 230.923C217.352 233.288 205.869 239.488 196.228 243.067C196.228 243.067 194.867 241.22 193.483 238.639C193.483 238.639 184.33 242.782 169.679 238.367L140.813 178.372Z" fill="#D3766A"/>
<path d="M202.051 171.833C208.201 176.744 221.055 187.367 228.483 199.638C236.734 213.267 248.875 241.701 238.537 247.561C230.955 251.856 225.345 241.401 225.345 241.401C225.345 241.401 227.832 254.188 220.119 256.605C213.089 258.804 209.244 250.46 209.244 250.46C209.244 250.46 209.391 258.471 202.201 259.313C193.554 260.325 194.666 243.369 184.999 236.986C182.829 235.554 202.051 171.833 202.051 171.833Z" fill="#D3766A"/>
<path d="M212.321 205.772C217.331 211.319 225.406 226.777 225.517 241.119C225.52 241.444 225.271 241.62 225.205 241.325C221.657 225.559 215.266 211.612 212.191 205.849C212.148 205.772 212.265 205.711 212.321 205.772Z" fill="#263238"/>
<path d="M198.508 214.328C202.328 219.549 209.925 235.844 209.528 250.381C209.521 250.707 209.256 250.867 209.203 250.567C206.189 233.947 201.092 220.325 198.374 214.397C198.338 214.315 198.46 214.259 198.508 214.328Z" fill="#263238"/>
<path d="M231.116 204.104C237.186 207.273 240.734 211.228 245.406 216.04C247.718 218.42 250.073 220.77 252.644 222.886C254.984 224.814 258.42 227.706 261.686 226.088C263.504 225.188 263.946 222.972 263.967 221.159C263.99 219.122 263.623 217.085 262.779 215.221C262.736 215.127 262.904 215.05 262.95 215.144C263.738 216.813 264.358 218.54 264.636 220.363C264.887 222.014 264.961 223.886 264.178 225.419C262.492 228.718 258.194 228.326 255.419 226.765C253.761 225.831 252.27 224.562 250.841 223.326C249.46 222.131 248.138 220.867 246.851 219.575C244.206 216.922 241.721 214.122 239.109 211.439C236.24 208.491 234.16 206.912 230.976 204.297C230.866 204.208 230.996 204.041 231.116 204.104Z" fill="#263238"/>
<path d="M239.954 229.104C239.044 225.157 233.156 208.301 230.951 204.229C230.895 204.125 231.043 204.033 231.111 204.132C235.163 209.826 240.638 223.881 241.686 228.242C242.721 232.55 243.81 238.011 242.884 242.393C241.49 249.005 236.747 249.351 235.023 249.341C232.965 249.328 231.055 248.517 229.471 247.258C227.708 245.857 226.233 243.392 225.272 241.411C225.221 241.307 225.371 241.208 225.432 241.315C227.223 244.392 230.567 247.749 234.336 248.019C235.972 248.136 237.734 247.751 238.978 246.658C240.44 245.371 240.954 243.392 241.18 241.551C241.696 237.38 240.89 233.158 239.954 229.104Z" fill="#263238"/>
<path d="M209.529 250.381C210.302 251.358 211.663 254.491 214.616 255.699C216.775 256.581 219.173 256.851 221.241 255.595C223.265 254.366 224.366 252.273 224.941 250.073C225.264 248.83 225.386 243.194 225.282 241.467C225.274 241.332 225.45 241.307 225.465 241.436C225.826 244.552 226.208 247.94 225.605 250.798C225.104 253.176 223.797 255.574 221.63 256.866C219.384 258.204 216.498 258.252 214.26 256.874C213.151 256.19 209.852 253.039 209.244 250.462C209.229 250.404 209.494 250.338 209.529 250.381Z" fill="#263238"/>
<path d="M185.887 235.93C186.821 236.757 187.543 237.861 188.253 238.873C189.013 239.959 189.73 241.073 190.425 242.199C191.811 244.45 192.897 246.927 193.774 249.41C194.664 251.93 195.394 254.682 197.289 256.691C199.145 258.657 202.088 259.506 204.641 258.364C205.974 257.769 207.002 256.752 207.658 255.478C208.334 254.168 208.95 252.528 209.039 251.055C209.046 250.923 209.242 250.938 209.224 251.073C209.041 252.487 209.156 253.86 208.69 255.239C208.283 256.452 207.609 257.596 206.633 258.453C204.629 260.208 201.661 260.557 199.206 259.58C196.493 258.502 194.863 256.007 193.805 253.453C192.627 250.607 191.785 247.657 190.475 244.857C189.786 243.385 189.117 241.904 188.321 240.483C187.495 239.005 186.419 237.611 185.692 236.088C185.636 235.963 185.773 235.829 185.887 235.93Z" fill="#263238"/>
<path d="M174.372 239.066C177.001 239.453 183.177 239.875 188.227 239.483C188.375 239.471 188.477 239.895 188.334 239.933C186.356 240.468 182.467 240.549 181.312 240.511C179.003 240.434 176.544 240.063 174.351 239.31C174.224 239.267 174.219 239.043 174.372 239.066Z" fill="#263238"/>
<path d="M141.833 172.985L165.454 244C165.454 244 30.0898 252.97 23.2789 224.977C16.4707 196.983 89.3857 124.06 115.762 104.996C142.135 85.9319 147.939 97.5037 138.175 118.231C128.414 138.959 104.434 178.377 105.009 178.42C105.584 178.468 141.833 172.985 141.833 172.985Z" fill="#FFC727"/>
<path d="M119.022 226.266C117.343 226.927 115.716 227.69 114.241 228.835C116.097 228.707 117.827 228.173 119.505 227.563C121.184 226.902 122.811 226.164 124.286 225.02C122.404 225.121 120.7 225.656 119.022 226.266ZM85.2984 181.123C83.6453 181.784 82.0177 182.522 80.5426 183.666C82.3992 183.539 84.1286 183.031 85.8071 182.42C87.4856 181.759 89.1133 181.021 90.5884 179.852C88.7064 179.979 87.0024 180.513 85.2984 181.123ZM105.568 119.907C103.89 120.568 102.262 121.331 100.787 122.476C102.643 122.349 104.373 121.84 106.051 121.23C107.73 120.568 109.358 119.805 110.833 118.661C108.951 118.788 107.247 119.297 105.568 119.907ZM44.0978 193.255C43.4366 191.576 42.6736 189.948 41.5291 188.473C41.6563 190.33 42.1649 192.059 42.7753 193.738C43.4365 195.416 44.1995 197.044 45.344 198.519C45.2168 196.637 44.7082 194.933 44.0978 193.255ZM81.9159 230.539C81.2547 228.885 80.4917 227.258 79.3472 225.757C79.4744 227.639 79.9831 229.343 80.5934 231.047C81.2547 232.7 82.0177 234.328 83.1621 235.803C83.035 233.947 82.5263 232.217 81.9159 230.539ZM145.955 205.055C145.294 203.377 144.531 201.749 143.386 200.274C143.513 202.13 144.022 203.86 144.632 205.538C145.294 207.217 146.057 208.845 147.201 210.32C147.074 208.463 146.565 206.734 145.955 205.055ZM121.82 143.941C121.158 142.262 120.395 140.635 119.251 139.16C119.378 141.016 119.912 142.746 120.522 144.424C121.006 145.67 121.54 146.916 122.277 148.061C122.455 147.756 122.608 147.476 122.786 147.171C122.557 146.052 122.201 144.984 121.82 143.941ZM43.7163 224.384C42.0886 223.672 40.3846 223.036 38.5281 222.807C39.9523 224.053 41.5291 224.893 43.1568 225.656C44.7845 226.368 46.4885 226.978 48.345 227.207C46.9208 225.986 45.344 225.121 43.7163 224.384ZM64.1132 164.923C62.4601 164.211 60.7815 163.575 58.925 163.346C60.3237 164.592 61.9005 165.431 63.5282 166.194C65.1813 166.906 66.8599 167.517 68.7165 167.771C67.3177 166.525 65.7408 165.686 64.1132 164.923ZM102.415 207.09C100.787 206.378 99.0829 205.742 97.2263 205.513C98.6505 206.759 100.227 207.598 101.855 208.361C103.483 209.074 105.187 209.684 107.043 209.913C105.619 208.692 104.042 207.853 102.415 207.09ZM91.3005 151.444C90.5884 153.097 89.978 154.775 89.7491 156.632C90.9699 155.233 91.8346 153.631 92.5721 152.028C93.2843 150.375 93.9201 148.697 94.149 146.84C92.9028 148.239 92.0635 149.816 91.3005 151.444ZM68.6402 207.42C67.9281 209.074 67.3177 210.752 67.0888 212.634C68.3095 211.21 69.1742 209.633 69.9118 208.005C70.6239 206.352 71.2597 204.674 71.4886 202.817C70.2424 204.216 69.4031 205.818 68.6402 207.42ZM141.759 241.398C141.25 242.594 140.767 243.789 140.487 245.061C140.767 245.061 141.072 245.061 141.352 245.035C142.013 244.043 142.547 243.026 143.03 241.983C143.742 240.33 144.353 238.652 144.582 236.795C143.361 238.194 142.522 239.771 141.759 241.398ZM123.702 175.706C122.786 176.901 122.125 178.224 121.489 179.521C120.777 181.174 120.166 182.853 119.912 184.735C121.158 183.31 121.998 181.734 122.761 180.106C123.371 178.656 123.93 177.207 124.21 175.63C124.032 175.655 123.854 175.681 123.702 175.706ZM135.807 114.744C135.095 116.398 134.485 118.076 134.256 119.933C135.477 118.534 136.341 116.957 137.079 115.329C137.791 113.676 138.427 111.998 138.656 110.141C137.41 111.54 136.57 113.117 135.807 114.744Z" fill="white"/>
<path d="M141.899 172.863C130.401 173.432 118.977 175.546 107.779 178.086C96.5375 180.637 85.3878 183.699 74.5205 187.504C68.2819 189.689 62.2239 192.176 56.1023 194.646C55.8836 194.735 56.054 195.037 56.2676 194.961C61.7738 192.99 67.4351 191.367 73.0277 189.646C78.4855 187.967 83.9967 186.413 89.5156 184.933C100.569 181.973 111.759 179.462 123.01 177.326C129.333 176.126 135.67 175.014 141.968 173.682C142.418 173.588 142.39 172.84 141.899 172.863Z" fill="#263238"/>
<path d="M141.026 232.296C140.439 229.966 139.94 227.616 139.302 225.297C137.974 220.478 136.649 215.658 135.311 210.841C133.974 206.019 132.61 201.202 131.217 196.398C129.821 191.589 128.223 186.818 126.901 181.993C126.84 181.774 126.496 181.846 126.547 182.069C127.649 186.942 128.536 191.858 129.688 196.724C130.861 201.675 132.14 206.609 133.501 211.513C134.841 216.335 136.252 221.134 137.727 225.918C138.465 228.318 139.373 230.666 140.184 233.044C140.97 235.348 141.685 237.675 142.638 239.921C142.702 240.073 142.939 239.979 142.908 239.827C142.415 237.286 141.659 234.806 141.026 232.296Z" fill="#263238"/>
<path d="M166.576 245.121C166.283 244.005 165.993 242.888 165.706 241.772C165.612 241.406 164.963 241.413 164.994 241.828C165.062 242.749 165.126 243.672 165.192 244.592C157.59 244.389 149.961 244.926 142.364 245.111C134.49 245.305 126.614 245.378 118.735 245.292C103.198 245.121 87.6866 244.297 72.2312 242.718C63.3985 241.815 54.6218 240.508 45.812 239.447C45.5805 239.419 45.5068 239.786 45.7357 239.842C60.9341 243.692 76.8752 245.154 92.501 246.129C108.211 247.11 123.961 247.278 139.696 247.039C148.463 246.904 157.349 246.965 166.057 245.91C166.413 245.867 166.66 245.444 166.576 245.121Z" fill="#263238"/>
<path d="M123.884 150.07C122.493 151.639 121.094 153.211 119.845 154.895C119.563 155.273 119.299 155.663 119.024 156.047C121.361 151.55 123.564 146.995 125.807 142.438C125.873 142.303 125.644 142.194 125.565 142.323C121.689 148.714 117.668 154.996 113.976 161.494C112.172 164.668 110.405 167.86 108.635 171.052C107.727 172.69 106.791 174.312 105.914 175.968C105.179 177.357 104.09 178.895 103.93 180.467C103.912 180.632 104.113 180.691 104.23 180.609C105.547 179.663 106.417 177.857 107.264 176.507C108.256 174.923 109.197 173.308 110.158 171.703C112.078 168.493 113.971 165.268 115.809 162.013C116.267 161.202 116.699 160.383 117.142 159.566C118.286 158.211 119.428 156.86 120.512 155.451C121.799 153.778 122.933 151.998 124.06 150.22C124.126 150.113 123.973 149.966 123.884 150.07Z" fill="#263238"/>
<path d="M160.738 118.147C152.829 119.788 139.744 107.725 134.739 98.076C134.401 97.4122 138.035 71.3465 138.208 66.115C138.238 65.0392 171.435 74.8511 171.435 74.8511C171.435 74.8511 167.778 85.7464 167.534 94.8716C167.519 95.6345 168.383 116.555 160.738 118.147Z" fill="#D3766A"/>
<path d="M171.445 74.8435C171.445 74.8435 171.445 74.8435 171.423 74.8664C171.377 75.0266 171.163 75.6624 170.858 76.6848C170.342 78.4346 169.541 81.2779 168.879 84.5282C168.193 87.7785 167.623 91.4382 167.537 94.8665C167.514 95.1157 167.534 95.365 167.534 95.5939V95.7083C167.554 96.1381 167.552 96.7078 167.549 97.3894C166.552 97.5064 165.466 97.5344 164.286 97.4962C146.079 96.6747 140.67 74.5841 139.25 66.1227C139.436 66.143 139.619 66.1888 139.828 66.2346C140.705 66.3897 141.862 66.6568 143.248 66.9899C143.594 67.079 143.943 67.168 144.312 67.257C146.529 67.8139 149.167 68.5286 151.916 69.2636C152.816 69.5103 153.719 69.7545 154.642 70.0215C156.608 70.5785 158.594 71.138 160.443 71.6517C161.229 71.8984 162.015 72.1222 162.755 72.3231C163.564 72.5469 164.373 72.7911 165.113 72.992C165.482 73.1039 165.853 73.2158 166.199 73.3048C166.384 73.371 166.545 73.4167 166.707 73.4599C167.793 73.7728 168.719 74.0424 169.457 74.2636C170.011 74.4213 170.451 74.5536 170.774 74.6426C171.051 74.7316 171.237 74.7774 171.329 74.8206C171.374 74.8206 171.397 74.8206 171.42 74.8435C171.445 74.8435 171.445 74.8435 171.445 74.8435Z" fill="#263238"/>
<path d="M175.416 12.2744C175.416 12.2744 187.018 16.4479 189.658 27.9001C192.298 39.3524 190.245 51.5981 189.276 52.2365C188.302 52.8774 175.416 12.2744 175.416 12.2744Z" fill="#263238"/>
<path d="M133.393 30.7307C130.443 42.6204 138.614 75.7946 147.462 82.6969C160.29 92.7046 180.336 92.3435 188.907 77.262C197.213 62.646 185.786 19.6091 175.992 13.4569C161.565 4.40042 137.75 13.1696 133.393 30.7307Z" fill="#D3766A"/>
<path d="M167.932 48.0782C167.891 47.9994 167.784 48.2334 167.812 48.3224C168.489 50.5248 168.885 53.1647 167.036 54.4694C166.978 54.5101 167.016 54.6195 167.09 54.5889C169.496 53.5488 168.934 50.0518 167.932 48.0782Z" fill="#263238"/>
<path d="M165.279 46.3184C161.563 47.056 163.226 54.3042 166.67 53.6175C170.057 52.9436 168.394 45.6979 165.279 46.3184Z" fill="#263238"/>
<path d="M181.252 45.311C181.249 45.2195 181.455 45.3746 181.473 45.4662C181.916 47.7271 182.811 50.2398 185.052 50.4941C185.12 50.5018 185.141 50.6162 185.062 50.6239C182.457 50.8757 181.303 47.5287 181.252 45.311Z" fill="#263238"/>
<path d="M182.755 42.483C186.369 41.3386 188.322 48.5106 184.973 49.5711C181.677 50.6164 179.726 43.4444 182.755 42.483Z" fill="#263238"/>
<path d="M162.611 43.6861C163.669 43.5793 164.63 43.3046 165.668 43.091C166.837 42.8494 167.794 42.7781 168.676 41.9007C169.149 41.4302 169.139 40.4663 168.727 39.9755C167.763 38.8361 166.263 38.7802 164.841 39.0141C163.3 39.2659 162.173 39.8483 161.128 41.0004C160.116 42.1169 161.214 43.8285 162.611 43.6861Z" fill="#263238"/>
<path d="M184.702 37.1068C183.641 37.1856 182.652 37.0839 181.596 37.0533C180.406 37.0203 179.452 37.1144 178.448 36.4048C177.909 36.0234 177.774 35.0696 178.11 34.5152C178.888 33.2232 180.363 32.9079 181.8 32.8901C183.359 32.8697 184.559 33.2487 185.762 34.2024C186.93 35.123 186.1 37.0025 184.702 37.1068Z" fill="#263238"/>
<path d="M170.604 69.411C171.272 69.8077 171.985 70.4003 172.829 70.2731C173.64 70.1511 174.492 69.5763 175.159 69.1261C175.225 69.0829 175.316 69.1388 175.283 69.2177C174.886 70.2197 173.762 71.0565 172.661 71.1226C171.585 71.1913 170.871 70.4334 170.408 69.5636C170.342 69.4415 170.507 69.3525 170.604 69.411Z" fill="#263238"/>
<path d="M171.463 62.122C173.19 63.7675 175.316 64.388 177.44 64.2914C178.391 64.2558 179.352 64.06 180.268 63.7548C180.451 63.7065 180.632 63.6429 180.789 63.5691C180.952 63.5106 181.097 63.4547 181.272 63.3758C181.532 63.2741 181.628 63.0223 181.616 62.7654L181.611 62.7502C181.59 62.6688 181.575 62.6027 181.537 62.5264C181.537 62.5264 181.537 62.5264 181.534 62.5086L181.483 62.3128C181.135 60.5732 180.359 57.9867 180.359 57.9867C181.074 58.1494 184.688 58.8234 184.429 57.9307C182.257 50.5655 179.841 42.3711 176.094 35.5171C175.982 35.2856 175.611 35.4331 175.69 35.6722C177.491 42.8391 180.565 49.6245 182.493 56.7913C181.356 56.6489 179.482 56.3285 178.566 56.565C178.332 56.6947 180.156 61.5396 180.247 62.3331C180.247 62.3331 180.255 62.3662 180.253 62.4196C177.379 63.4903 174.95 63.1418 171.628 61.8728C171.43 61.7812 171.285 61.9745 171.463 62.122Z" fill="#263238"/>
<path d="M137.613 59.8611C141.618 60.2833 143.752 48.063 144.129 43.4521C144.462 39.388 143.328 26.921 143.348 26.0512C143.371 25.1814 161.944 33.6504 170.932 29.0064C179.92 24.3624 184.62 14.5658 183.974 10.5475C183.325 6.53169 169.515 -1.29642 159.175 0.183749C148.834 1.66392 137.511 17.3812 137.511 17.3812C137.511 17.3812 141.123 10.84 140.873 10.4101C140.624 9.98034 134.523 13.9148 134.225 18.8639C134.225 18.8639 134.38 12.6914 133.859 12.6787C133.338 12.666 129.185 18.7368 131.095 22.3507C131.095 22.3507 126.153 28.6631 126.702 34.4159C127.254 40.1713 132.905 59.3652 137.613 59.8611Z" fill="#263238"/>
<path d="M177.318 25.695C174.68 27.5948 172.063 29.6269 168.943 30.6747C165.57 31.8064 161.809 31.6386 158.345 31.0333C154.802 30.4127 151.45 29.1665 148.292 27.4575C145.524 25.9595 142.948 24.0063 140.064 22.7525C139.342 22.4397 138.782 23.5002 139.288 24.0114C144.286 29.0572 152.068 32.5643 159.067 33.368C166.43 34.2149 172.648 31.3944 177.371 25.7662C177.396 25.7281 177.361 25.662 177.318 25.695Z" fill="#263238"/>
<path d="M142.587 57.5595C142.587 57.5595 134.022 47.4018 129.22 50.5605C124.418 53.7167 131.448 68.9253 137.498 70.5479C143.549 72.1705 145.27 66.6669 145.27 66.6669L142.587 57.5595Z" fill="#D3766A"/>
<path d="M131.346 54.8661C131.252 54.8661 131.242 54.9983 131.329 55.0238C135.581 56.2954 138.045 59.8585 139.869 63.6174C138.526 62.2288 136.791 61.5574 134.856 63.1749C134.754 63.2588 134.871 63.4165 134.986 63.3809C136.649 62.8722 137.89 63.0502 139.134 64.2786C140.014 65.1484 140.66 66.2878 141.323 67.3229C141.545 67.6688 142.196 67.4145 142.023 67.0101C142.01 66.9796 141.995 66.9491 141.982 66.9185C141.685 61.743 137.033 54.8788 131.346 54.8661Z" fill="#263238"/>
<path d="M167.666 97.6259L159.352 117.117L135.006 92.2317L127.867 100.121C127.867 100.121 151.438 139.562 151.618 137.786L160.097 120.996L171.756 132.791L171.27 103.363L167.666 97.6259Z" fill="#EBEBEB"/>
<path d="M172.353 118.224C172.106 113.369 171.997 108.473 171.521 103.636C171.504 103.463 171.231 103.386 171.186 103.587C170.12 108.267 171.16 126.825 171.069 131.273C171.051 131.258 171.033 131.238 171.018 131.222C170.532 130.711 160.204 120.841 160.097 120.996C158.274 123.659 152.053 135.887 151.623 137.001C147.897 130.736 133.591 107.957 129.153 102.026C129.026 101.855 128.757 101.993 128.853 102.191C132.129 108.804 151.051 139.475 151.348 139.391C151.549 139.546 159.278 124.485 160.219 121.637C161.959 123.786 172.366 134.918 172.414 134.195C172.737 129.33 172.6 123.084 172.353 118.224Z" fill="#263238"/>
<path d="M302.016 283.308H145.551V290.18H302.016V283.308Z" fill="#C7C7C7"/>
<path d="M179.03 283.308L173.674 290.18H302.019V283.308H179.03Z" fill="#A6A6A6"/>
<path d="M185.723 290.173H338.212L350.907 188.776H198.417L185.723 290.173Z" fill="#C7C7C7"/>
<path d="M259.032 239.476C258.943 244.494 263.025 248.563 268.15 248.563C273.277 248.563 277.504 244.494 277.595 239.476C277.687 234.455 273.602 230.389 268.478 230.389C263.35 230.389 259.124 234.455 259.032 239.476Z" fill="white"/>
<path d="M349.669 198.58C355.414 207.268 369.603 217.426 371.554 224.878C373.316 231.604 367.841 234.758 367.841 234.758C367.841 234.758 376.066 237.528 376.696 244.575C377.022 248.202 371.389 251.895 371.389 251.895C371.389 251.895 377.882 254.395 378.047 260.697C378.179 265.717 372.518 268.667 372.518 268.667C372.518 268.667 377.602 273.909 376.063 279.064C372.94 289.522 329.29 295.17 320.422 280.3C316.289 273.37 327.027 272.556 327.027 272.556C327.027 272.556 311.297 270.074 309.878 261.292C308.458 252.51 322.477 252.279 322.477 252.279C322.477 252.279 307.253 249.743 306.719 240.493C306.164 230.864 320.226 232.985 320.226 232.985C320.226 232.985 309.649 227.797 310.897 220.625C312.957 208.781 337.851 221.37 347.144 217.899L349.669 198.58Z" fill="#D3766A"/>
<path d="M371.691 269.262C371.833 269.232 371.907 269.423 371.764 269.478C357.868 274.761 340.948 276.396 326.444 272.673C325.968 272.551 325.963 271.742 326.515 271.778C342.214 272.815 356.233 272.51 371.691 269.262Z" fill="#263238"/>
<path d="M371.611 251.958C371.779 251.922 371.842 252.194 371.669 252.258C357.323 257.627 338.21 258.954 322.01 252.734C321.456 252.52 321.173 251.783 321.832 251.981C332.928 255.318 357.712 254.951 371.611 251.958Z" fill="#263238"/>
<path d="M319.188 232.169C334.959 237.545 350.905 237.431 367.263 235.007C367.477 234.977 367.5 235.274 367.329 235.348C359.656 238.669 349.064 239.148 340.79 238.84C332.866 238.542 325.775 236.719 318.995 232.711C318.733 232.556 318.85 232.057 319.188 232.169Z" fill="#263238"/>
</svg>
