<svg width="490" height="349" viewBox="0 0 490 349" fill="none" xmlns="http://www.w3.org/2000/svg">
<path d="M429.2 354.825L191.683 355.848C133.952 310.517 127.991 243.353 169.175 202.645C194.102 178.021 225.755 182.988 255.893 179.072C255.923 179.072 255.951 179.057 255.981 179.057C266.478 177.69 276.774 175.242 286.552 170.085C317.585 153.713 335.081 115.091 361.189 82.604C364.443 78.5286 367.841 74.5683 371.413 70.7528C392.883 47.8269 435.616 47.0816 457.966 79.3117C514.758 161.204 488.742 283.094 429.2 354.825Z" fill="#FFC727"/>
<path opacity="0.1" d="M434.469 167.449C428.248 264.895 315.71 301.271 245.422 272.082C184.307 246.695 204.309 188.763 255.891 179.07C255.921 179.07 255.949 179.056 255.979 179.056C266.476 177.688 276.772 175.24 286.55 170.084C317.583 153.711 335.079 115.089 361.187 82.6022C400.082 62.401 439.035 96.097 434.469 167.449Z" fill="black"/>
<path d="M215.378 370.172C219.042 368.83 301.816 302.676 303.379 298.158C303.981 296.449 295.049 283.831 283.824 268.893C281.401 265.667 278.879 262.35 276.297 258.996C259.569 237.201 241.311 214.466 241.311 214.466L185.813 258.557L222.327 301.873L230.335 311.388C230.335 311.388 209.973 350.891 208.79 356.029C207.625 361.154 211.714 371.515 215.378 370.172Z" fill="#D3766A"/>
<path d="M215.384 370.167C219.04 368.825 301.811 302.683 303.374 298.16C303.867 296.766 298.051 288.145 289.823 276.957C277.786 291.342 235.822 334.173 224.362 339.902C217.085 343.541 218.53 336.399 221.251 329.293C215.657 340.464 209.434 353.25 208.788 356.021C207.631 361.156 211.711 371.51 215.384 370.167Z" fill="#263238"/>
<path d="M129.758 173.773C133.562 202.607 204.62 285.843 212.832 295.389C214.043 296.796 214.703 297.563 214.703 297.563L273.482 252.392L272.805 251.52L221.045 183.748C221.045 183.748 306.637 233.693 349.464 211.021C368.688 200.843 382.95 182.749 382.95 182.749L327.056 152.948C327.056 152.948 311.591 157.948 301.705 156.505C267.633 151.518 191.283 122.531 173.168 123.261C149.795 124.221 126.269 147.318 129.758 173.773Z" fill="#263238"/>
<path d="M201.01 213.921C198.394 219.417 197.901 228.384 204.795 230.918C211.047 233.238 217.283 229.009 221.034 224.32C224.933 219.417 227.599 213.543 232.535 209.512C234.262 208.097 236.253 206.995 238.326 206.386L238.589 206.731C237.504 207.011 236.401 207.455 235.348 208.064C225.081 213.987 222.778 230.408 209.632 231.872C204.63 232.431 200.237 229.733 199.069 224.715C197.917 219.729 199.727 214.366 202.639 210.318C208.957 201.582 219.52 197.83 229.442 194.754L229.705 195.116C224.061 196.843 218.451 198.669 213.317 201.68C208.283 204.609 203.561 208.574 201.01 213.921ZM211.096 271.656C204.679 271.656 197.506 273.219 191.599 269.879C191.797 270.126 191.994 270.372 192.192 270.619C194.182 271.573 196.42 272.1 198.691 272.297C205.041 272.873 211.425 271.294 217.71 272.758C224.39 274.321 228.882 279.701 227.122 286.71C226.974 287.303 226.793 287.878 226.579 288.438L227.187 287.977C228.504 283.963 228.175 279.52 225.164 276.263C221.676 272.478 215.999 271.656 211.096 271.656ZM252.509 224.945C251.538 228.17 249.794 231.23 247.737 233.797C243.706 238.832 238.195 242.616 232.123 244.771C225.707 247.042 219.158 247.19 212.528 245.923C206.292 244.738 199.48 242.665 193.277 245.018C189.345 246.499 186.647 249.789 185.528 253.804C184.788 256.502 184.738 259.464 185.446 262.212C185.66 262.491 185.874 262.755 186.087 263.034C183.916 256.436 186.565 247.996 193.393 245.413C200.254 242.813 207.756 245.627 214.634 246.713C220.376 247.634 226.2 247.206 231.712 245.347C240.745 242.287 250.008 234.899 252.854 225.406L252.509 224.945ZM261.311 260.533C260.094 257.111 258.366 253.524 255.01 251.747C250.995 249.592 246.536 250.892 243.394 253.936C239.758 257.473 237.849 262.639 238.063 267.674C238.211 271.261 239.034 274.732 239.922 278.188L240.268 277.924C239.248 274.074 238.359 270.191 238.491 266.193C238.655 260.435 242.143 253.607 247.853 251.583C252.953 249.757 257.412 253.113 259.6 257.522C260.275 258.888 260.818 260.303 261.311 261.751L261.64 261.504C261.542 261.175 261.426 260.846 261.311 260.533ZM155.369 154.279C153.921 158.754 153.017 164.611 156.077 168.642C159.071 172.608 164.632 172.591 168.598 170.14C173.698 166.997 175.508 160.515 176.248 154.953C177.17 147.911 176.314 141.001 174.241 134.255C173.172 130.734 171.987 127.016 172.645 123.297C172.53 123.297 172.398 123.297 172.283 123.314C171.987 124.943 171.971 126.687 172.283 128.546C172.843 131.853 174.126 134.979 174.916 138.237C175.837 142.038 176.265 145.953 176.183 149.869C176.051 156.549 174.801 165.385 168.812 169.481C166.047 171.374 162.214 172.147 159.121 170.633C156.126 169.169 154.777 165.993 154.547 162.834C154.053 156.22 157.92 150.527 158.709 144.127C159.4 138.648 156.949 133.762 152.145 131.047C151.848 130.882 151.552 130.718 151.24 130.586C151.108 130.668 150.96 130.767 150.828 130.866C152.243 131.491 153.576 132.363 154.777 133.515C160.931 139.422 157.591 147.401 155.369 154.279ZM147.9 203.49C146.024 202.437 144.033 201.812 141.993 201.615C142.092 201.796 142.207 201.977 142.322 202.157C144.856 202.437 147.291 203.359 149.315 204.955C154.925 209.446 154.991 216.735 156.274 223.448C156.472 223.728 156.686 224.024 156.9 224.32C155.155 216.603 155.419 207.784 147.9 203.49ZM174.62 199.607C169.651 195.938 163.859 193.552 157.985 191.808C151.273 189.818 144.263 188.584 137.962 185.441C135.642 184.289 133.552 182.858 131.71 181.196C131.841 181.542 131.973 181.887 132.105 182.233C141.22 189.702 154.119 190.229 164.731 194.638C170.885 197.205 176.791 200.891 180.822 206.304C184.59 211.371 186.548 218.134 185.248 224.386C184.047 230.21 179.934 234.685 174.225 236.331C171.23 237.186 168.104 237.12 165.373 236.084C165.554 236.331 165.718 236.561 165.899 236.808C172.563 238.881 180.806 235.261 184.047 229.075C189.575 218.512 183.406 206.106 174.62 199.607ZM229.935 142.268C222.794 153.637 223.666 168.017 217.595 179.863C214.798 185.293 210.471 190.18 204.449 191.907C199.349 193.371 193.047 192.746 189.246 188.699C184.524 183.681 185.775 176.26 188.917 170.765C192.257 164.94 197.851 161.09 203.084 157.092C207.921 153.407 212.495 149.376 215.325 143.88C216.937 140.738 217.99 137.299 218.336 133.778C218.204 133.745 218.089 133.696 217.957 133.663C217.875 134.551 217.743 135.423 217.579 136.295C216.197 143.173 212.281 148.882 207.032 153.423C202.113 157.685 196.354 161.041 191.961 165.895C188.457 169.778 185.725 174.928 185.676 180.258C185.627 185.079 188.177 189.505 192.554 191.595C196.749 193.602 201.85 193.454 206.127 191.808C211.146 189.867 214.88 185.671 217.447 181.065C223.979 169.268 223.058 154.838 229.886 143.189C230.873 141.478 232.09 139.849 233.489 138.352C233.357 138.319 233.226 138.27 233.094 138.22C231.893 139.471 230.824 140.837 229.935 142.268ZM264.536 147.615C264.404 147.582 264.273 147.533 264.125 147.5C266.066 155.431 264.849 164.332 261.92 171.637C259.37 177.988 255.092 183.236 249.284 186.856C245.533 189.192 241.436 190.854 237.257 192.269C237.421 192.351 237.602 192.45 237.783 192.532C240.959 191.43 244.085 190.196 247.063 188.6C252.377 185.77 256.869 181.805 259.929 176.589C262.924 171.489 264.635 165.549 265.244 159.692C265.638 155.875 265.474 151.646 264.536 147.615ZM290.549 204.148C286.567 201.253 281.104 200.841 276.53 202.437C274.194 203.276 272.17 204.642 270.492 206.353C270.607 206.402 270.722 206.435 270.838 206.485C274.523 202.816 279.838 201.055 285.103 202.141C291.273 203.408 294.596 208.344 296.373 213.872C296.521 213.905 296.653 213.938 296.801 213.954C295.633 210.121 293.773 206.501 290.549 204.148ZM329.905 216.554C330.283 216.521 330.645 216.488 331.007 216.439C332.093 215.962 333.294 215.666 334.627 215.633C335.054 215.616 335.466 215.633 335.877 215.682C336.272 215.616 336.65 215.55 337.012 215.452C334.561 215.024 332.076 215.369 329.905 216.554ZM293.379 154.986C293.23 154.97 293.099 154.937 292.967 154.904C293.181 158.343 293.609 161.781 293.938 165.204C294.514 171.11 295.32 177.379 292.194 182.743C290.845 185.046 288.607 187.251 285.711 186.856C281.828 186.33 280.068 182.183 279.13 178.86C277.041 171.555 278.028 163.805 279.821 156.533C280.183 155.069 280.594 153.604 281.039 152.123C280.907 152.074 280.759 152.041 280.611 152.008C279.13 157.076 277.896 162.193 277.583 167.491C277.254 173.085 277.732 180.472 281.582 184.947C284.592 188.452 289.035 187.728 291.667 184.273C294.711 180.275 295.057 175.306 294.777 170.469C294.464 165.286 293.708 160.153 293.379 154.986ZM330.267 154.657L329.872 154.443C329.691 155.118 329.526 155.776 329.411 156.385C328.21 162.456 328.226 168.675 328.49 174.845C328.802 181.821 329.148 189.867 323.587 195.066C321.119 197.37 317.63 198.801 314.258 197.781C311 196.794 308.647 193.98 307.446 190.887C304.632 183.648 308.153 175.322 310.21 168.33C311.312 164.595 312.398 160.86 313.501 157.109C313.599 156.763 313.715 156.418 313.813 156.056C313.649 156.072 313.484 156.105 313.32 156.138C313.221 156.434 313.139 156.73 313.056 157.01C310.918 164.315 308.351 171.637 306.722 179.09C305.505 184.635 305.537 190.788 309.552 195.247C312.991 199.081 318.289 199.509 322.468 196.58C327.239 193.223 328.835 187.514 329.065 181.953C329.345 175.257 328.457 168.593 329.082 161.897C329.312 159.478 329.691 157.043 330.267 154.657ZM377.125 179.633C371.07 185.968 366.941 194.556 357.842 196.876C352.429 198.275 345.913 196.892 344.449 190.723C342.722 183.483 347.74 175.767 351.146 169.778C351.721 168.774 352.314 167.737 352.857 166.701L352.495 166.503C350.29 170.551 347.806 174.45 345.996 178.695C343.956 183.5 342.129 190.048 345.848 194.556C348.497 197.781 353.005 198.291 356.871 197.551C366.809 195.626 371.037 186.461 377.504 179.831L377.125 179.633Z" fill="#455A64"/>
<path d="M202.453 158.554C204.46 160.587 206.063 163.129 207.792 165.396C209.621 167.795 211.481 170.171 213.307 172.572C213.325 172.596 213.343 172.619 213.361 172.644C213.037 171.942 212.72 171.234 212.384 170.538C211.231 168.149 210.308 165.683 208.944 163.399C208.86 163.259 209.074 163.129 209.159 163.267C210.561 165.535 212.186 167.69 213.386 170.076C213.95 171.199 214.485 172.335 214.984 173.49C215.257 174.122 215.536 174.755 215.782 175.398C215.893 175.691 216.035 176.005 216.117 176.321C216.937 177.435 217.744 178.556 218.531 179.693C220.273 182.217 221.812 184.885 223.575 187.389C223.669 187.523 223.457 187.648 223.36 187.521C221.575 185.167 219.571 182.972 217.756 180.634C215.91 178.255 214.156 175.81 212.425 173.345C210.737 170.94 209.083 168.511 207.397 166.106C205.699 163.682 203.684 161.293 202.306 158.67C202.259 158.58 202.374 158.475 202.453 158.554Z" fill="#37474F"/>
<path d="M261.706 242.127C258.478 245.118 255.006 247.886 251.6 250.673C248.182 253.472 244.748 256.252 241.298 259.013C234.395 264.538 227.525 270.111 220.548 275.54C216.715 278.523 212.853 281.468 208.865 284.241C208.687 284.364 208.487 284.081 208.643 283.938C215.178 277.993 222.151 272.56 229.046 267.047C235.955 261.524 242.882 256.02 249.875 250.6C253.7 247.636 257.507 244.579 261.507 241.852C261.668 241.744 261.846 241.997 261.706 242.127Z" fill="#37474F"/>
<path d="M304.602 87.1629C304.597 87.5265 304.85 87.8917 305.227 87.9329C306.091 87.9724 307.131 88.0069 308.296 88.048C310.841 80.8268 313.641 75.0682 312.927 77.3058C311.894 80.5454 311.195 85.1836 311.31 88.1484C312.662 88.1879 315.797 88.2488 317.366 88.28C319.397 75.6325 322.194 66.218 322.083 69.1039C321.639 80.7363 322.43 84.4497 323.347 88.4149C337.962 88.6914 357.127 88.8427 370.984 88.6568C372.391 81.6576 373.58 74.0908 373.838 74.6108C375.836 78.4904 376.507 84.1766 376.672 88.5663C381.083 88.4758 384.605 88.3228 386.749 88.1205C386.749 88.1205 387.616 82.2434 387.712 80.3167C387.978 75.4071 387.295 70.4004 385.759 65.7079C384.158 60.8724 381.502 56.6373 378.977 52.2887C378.957 52.2525 378.937 52.2164 378.914 52.1933C378.918 52.1785 378.904 52.1752 378.894 52.1571C377.165 49.1495 375.867 46.2587 374.957 43.1852C374.947 43.1671 374.938 43.149 374.931 43.1161C374.301 40.9328 373.863 38.6738 373.597 36.1795C372.715 27.6074 367.672 20.3104 359.536 18.262C343.89 4.32119 328.783 10.7758 324.477 21.9129C324.063 22.9988 323.666 24.241 323.284 25.5951L323.275 25.6379C321.85 30.6446 320.631 37.1239 319.477 42.1388C319.487 42.1569 319.471 42.1668 319.471 42.1668C319.48 42.1849 319.477 42.1997 319.456 42.2227L319.453 42.2375C318.883 44.6265 318.347 46.6585 317.801 48.0373C314.201 57.103 305.54 62.4338 304.602 87.1629Z" fill="#263238"/>
<path d="M363.122 20.5326C368.497 23.1503 371.857 27.0958 372.853 33.3447C373.432 36.9858 373.774 40.5462 375.273 43.957C376.819 47.4779 379.194 50.3358 381.632 53.1888C385.505 57.7217 388.245 62.2644 388.996 68.4014C389.76 74.6355 389.664 82.0165 387.718 87.9034C387.707 87.938 387.657 87.9231 387.667 87.8869C389.212 81.9292 389.029 73.7454 387.805 67.5804C386.459 60.8099 382.491 56.6342 378.407 51.5699C375.163 47.5471 373.042 43.0603 372.231 37.8446C371.75 34.7564 371.706 31.5315 370.378 28.6457C368.794 25.202 365.763 23.0648 362.765 21.1776C362.357 20.9209 362.714 20.3352 363.122 20.5326Z" fill="#263238"/>
<path d="M309.191 57.886C312.794 52.9155 316.572 48.6607 318.594 42.5582C320.437 36.9987 321.416 31.1496 323.295 25.5951C323.324 25.5062 323.458 25.5391 323.431 25.6329C320.573 35.4818 320.241 45.352 314.162 53.7349C310.858 58.2891 307.548 62.5159 305.437 67.929C303.219 73.6169 302.36 79.4973 302.376 85.6853C302.378 85.9008 302.1 85.8959 302.075 85.6903C300.854 75.7081 303.533 65.6898 309.191 57.886Z" fill="#263238"/>
<path d="M357.694 16.6956C357.94 18.7556 368.059 23.1025 374.765 17.3801C381.37 11.7449 377.878 1.38268 368.329 3.01813C362.294 4.05303 357.172 12.3388 357.694 16.6956Z" fill="#263238"/>
<path d="M377.735 7.83402C376.514 5.29694 374.388 3.34066 372.012 2.21362C369.612 1.07506 366.846 1.20996 364.704 2.67265C362.484 4.05965 360.878 6.33512 359.664 8.75045C359.073 9.97621 358.585 11.2645 358.221 12.5923C357.836 13.9168 357.573 15.2889 357.695 16.694C357.222 15.3383 357.331 13.8559 357.478 12.4425C357.677 11.021 358.027 9.61589 358.557 8.26837C359.618 5.59802 361.309 3.01652 363.868 1.3712C365.146 0.568289 366.658 0.0237013 368.207 0.000666887C369.75 -0.0190769 371.265 0.400481 372.557 1.13923C375.14 2.59698 377.075 5.07483 377.735 7.83402Z" fill="#263238"/>
<path d="M353.412 96.6664C340.86 126.391 301.733 156.077 289.02 156.872C274.18 157.798 236.397 139.754 222.169 118.766C218.796 113.791 250.787 91.4375 255.988 95.2152C266.661 102.968 286.877 113.646 288.634 113.829C292.124 114.191 316.639 100.929 335.565 88.4332C359.115 72.885 358.414 84.8218 353.412 96.6664Z" fill="#D3766A"/>
<path d="M226.532 124.342C226.532 124.342 213.353 109.972 212.281 96.7403C211.539 87.5907 213.144 63.4177 235.54 47.6342C240.853 43.8895 251.077 42.3231 244.621 51.5895C240.035 58.1708 235.139 60.9596 233.168 65.272C233.168 65.272 246.409 64.8228 249.953 70.2902C251.536 72.7335 255.702 79.5056 258.193 85.2395C258.193 85.2395 257.091 86.1181 255.534 87.0313C255.534 87.0313 258.361 92.451 256.053 101.454L226.532 124.342Z" fill="#D3766A"/>
<path d="M261.3 38.9484L275.027 87.148C275.589 88.5564 274.908 89.7377 273.508 89.7805L248.443 90.5488C247.043 90.5916 245.449 89.4811 244.888 88.0727L231.161 39.8731C230.598 38.4614 231.279 37.2834 232.678 37.2406L257.743 36.4723C259.144 36.4295 260.737 37.5367 261.3 38.9484Z" fill="#455A64"/>
<path d="M258.325 39.0138L272.052 87.2133C272.614 88.6234 271.933 89.8031 270.533 89.8459L245.468 90.6142C244.07 90.657 242.476 89.5464 241.913 88.138L228.186 39.9385C227.623 38.5251 228.304 37.3487 229.703 37.3059L254.768 36.5392C256.168 36.4932 257.761 37.6021 258.325 39.0138Z" fill="#37474F"/>
<path d="M251.52 41.4442C251.583 42.619 252.585 43.5223 253.759 43.4598C254.934 43.3972 255.837 42.3952 255.775 41.2205C255.712 40.0457 254.71 39.1424 253.536 39.205C252.361 39.2658 251.459 40.2695 251.52 41.4442Z" fill="#263238"/>
<path d="M213.967 83.8078C216.828 79.9396 223.03 71.843 230.406 66.9827C238.599 61.5845 255.836 53.3957 259.758 59.4851C262.634 63.9505 256.328 67.6557 256.328 67.6557C256.328 67.6557 264.166 65.7718 265.882 70.3737C267.445 74.566 262.396 77.1409 262.396 77.1409C262.396 77.1409 267.346 76.8168 268.075 81.1456C268.95 86.3531 258.43 86.1787 254.761 92.2186C253.934 93.576 213.967 83.8078 213.967 83.8078Z" fill="#D3766A"/>
<path d="M234.663 76.5919C237.95 73.395 247.278 68.0494 256.146 67.5607C256.347 67.5492 256.463 67.6956 256.282 67.745C246.633 70.3561 238.189 74.6372 234.716 76.6692C234.668 76.6972 234.627 76.6281 234.663 76.5919Z" fill="#263238"/>
<path d="M240.352 84.7049C243.472 82.2386 253.332 77.1578 262.335 76.9719C262.536 76.967 262.643 77.1216 262.461 77.1628C252.266 79.4761 243.989 82.9641 240.398 84.7855C240.351 84.8085 240.311 84.7362 240.352 84.7049Z" fill="#263238"/>
<path d="M256.519 90.1362C256.397 93.0452 256.29 95.8701 255.948 98.6721C255.787 100.072 255.527 101.451 255.231 102.828C254.905 104.2 254.471 105.536 253.972 106.915C255.894 104.678 256.828 101.718 257.197 98.8235C257.355 97.3625 257.408 95.8948 257.297 94.4354C257.192 92.9826 256.973 91.5298 256.519 90.1362Z" fill="#263238"/>
<path d="M336.66 127.32L314.264 100.873C314.264 100.873 333.072 85.6294 346.552 80.037C360.032 74.4445 361.667 83.089 355.46 95.878C349.253 108.667 336.66 127.32 336.66 127.32Z" fill="#455A64"/>
<path d="M320.209 107.884L336.659 127.32C336.659 127.32 349.253 108.671 355.464 95.8766C360.127 86.2581 360.367 78.9858 354.458 78.354L320.209 107.884Z" fill="#263238"/>
<path d="M320.98 97.1353C324.791 100.923 334.816 111.507 340.385 119.28C340.418 119.326 340.249 119.482 340.209 119.441C334.561 113.72 324.179 101.485 320.729 97.3672C320.663 97.2899 320.908 97.0645 320.98 97.1353Z" fill="#263238"/>
<path d="M409.777 195.765C406.493 196.823 313.05 169.787 313.05 169.787L324.084 137.345C324.084 137.345 318.636 126.912 321.166 116.877C324.546 103.471 349.364 81.429 351.312 80.1325C359.142 74.9431 366.482 75.0304 372.966 78.4773C399.984 92.8311 409.777 195.765 409.777 195.765Z" fill="#455A64"/>
<path d="M354.061 135.009C350.041 134.316 345.971 133.754 341.889 133.662C339.857 133.615 337.838 133.665 335.809 133.755C334.798 133.801 333.791 133.813 332.779 133.819C331.741 133.826 330.637 133.795 329.623 133.545C329.531 133.522 329.496 133.658 329.587 133.686C330.556 133.987 331.486 134.272 332.489 134.441C333.443 134.603 334.419 134.664 335.387 134.693C337.447 134.759 339.508 134.729 341.568 134.774C345.724 134.864 349.88 134.955 354.02 135.345C354.211 135.364 354.252 135.042 354.061 135.009Z" fill="#263238"/>
<path d="M362.775 141.196C359.654 139.968 356.428 138.871 353.186 138.004C351.556 137.568 349.912 137.23 348.252 136.933C347.459 136.791 346.664 136.664 345.866 136.546C344.989 136.416 344.094 136.404 343.221 136.263C343.13 136.248 343.091 136.386 343.183 136.404C344.004 136.562 344.802 136.859 345.611 137.066C346.426 137.273 347.24 137.474 348.055 137.681C349.685 138.096 351.309 138.529 352.943 138.927C356.214 139.725 359.463 140.554 362.705 141.464C362.881 141.513 362.937 141.26 362.775 141.196Z" fill="#263238"/>
<path d="M363.455 79.043C363.283 80.7689 356.703 92.6843 349 93.3226C346.49 93.5267 344.768 79.8788 344.768 79.8788L344.411 78.9015L339.417 65.2025L356.818 50.6892C356.818 50.6892 363.52 78.3108 363.455 79.043Z" fill="#D3766A"/>
<path d="M339.415 65.1975L344.41 78.8981C348.235 76.8628 356.302 71.3329 359.085 60.1283C357.946 55.3388 356.982 51.3555 356.849 50.7698C356.827 50.7237 356.824 50.6908 356.824 50.6908L354.603 52.4101L339.415 65.1975Z" fill="#263238"/>
<path d="M318.209 43.0392C316.557 68.5745 331.665 72.4476 337.171 72.798C342.17 73.1156 359.232 73.5631 363.515 48.3355C367.796 23.1062 356.446 14.2675 345.051 12.9348C333.655 11.6021 319.861 17.5039 318.209 43.0392Z" fill="#D3766A"/>
<path d="M321.956 39.9459C322.556 39.8735 323.098 39.7057 323.683 39.5724C324.345 39.421 324.886 39.37 325.371 38.855C325.631 38.5786 325.608 38.0225 325.365 37.7444C324.795 37.0962 323.94 37.0797 323.137 37.2295C322.265 37.3907 321.635 37.7395 321.062 38.4141C320.506 39.0656 321.164 40.0413 321.956 39.9459Z" fill="#263238"/>
<path d="M339.493 41.8643C338.892 41.7969 338.349 41.6356 337.762 41.5089C337.099 41.3658 336.558 41.3197 336.066 40.8097C335.802 40.5366 335.82 39.9788 336.062 39.6991C336.623 39.0443 337.479 39.0196 338.283 39.1594C339.157 39.3125 339.791 39.653 340.371 40.321C340.932 40.9676 340.284 41.9515 339.493 41.8643Z" fill="#263238"/>
<path d="M335.889 45.7141C335.904 45.6483 336.024 45.7996 336.02 45.8704C335.933 47.6111 336.127 49.6201 337.694 50.2272C337.743 50.2453 337.735 50.3325 337.677 50.3243C335.757 50.0182 335.527 47.3495 335.889 45.7141Z" fill="#263238"/>
<path d="M337.476 43.9225C340.282 43.7597 340.4 49.3833 337.8 49.5331C335.242 49.6828 335.124 44.0591 337.476 43.9225Z" fill="#263238"/>
<path d="M338.587 44.1971C339.086 44.5047 339.578 45.056 340.171 45.102C340.859 45.1563 341.363 44.5558 341.799 43.9799C341.843 43.9207 341.892 43.9684 341.896 44.0424C341.934 45.1201 341.544 46.234 340.392 46.4183C339.341 46.5877 338.564 45.6483 338.273 44.5706C338.218 44.3732 338.386 44.072 338.587 44.1971Z" fill="#263238"/>
<path d="M325.602 45.4869C325.587 45.4211 325.468 45.5725 325.472 45.6449C325.577 47.384 325.404 49.3962 323.846 50.0181C323.798 50.0379 323.805 50.1251 323.864 50.1152C325.779 49.7894 325.98 47.119 325.602 45.4869Z" fill="#263238"/>
<path d="M323.994 43.7133C321.187 43.5817 321.129 49.2054 323.731 49.3288C326.289 49.4489 326.347 43.8236 323.994 43.7133Z" fill="#263238"/>
<path d="M322.818 44.0718C322.371 44.3647 321.925 44.9027 321.395 44.9324C320.78 44.9669 320.331 44.3532 319.944 43.7658C319.903 43.7049 319.858 43.7527 319.857 43.8267C319.816 44.9011 320.16 46.0248 321.191 46.242C322.131 46.4395 322.833 45.5247 323.1 44.4569C323.147 44.2561 322.999 43.9534 322.818 44.0718Z" fill="#263238"/>
<path d="M336.625 60.4627C336.249 60.9086 335.887 61.5075 335.263 61.6194C334.664 61.7279 333.93 61.5222 333.358 61.3594C333.3 61.3429 333.251 61.4071 333.29 61.4548C333.804 62.0784 334.791 62.4041 335.582 62.1886C336.354 61.9764 336.678 61.2623 336.801 60.5252C336.816 60.4232 336.68 60.3985 336.625 60.4627Z" fill="#263238"/>
<path d="M328.959 53.8998C328.959 53.8998 328.697 56.5142 328.741 57.74C328.746 57.8551 329.044 57.8979 329.462 57.9078C329.482 57.9127 329.493 57.9209 329.51 57.9078C331.688 58.1644 333.842 57.3352 335.091 55.5188C335.171 55.3954 335.012 55.2753 334.901 55.3559C333.329 56.603 331.553 56.9765 329.633 57.0802C329.533 56.7445 330.232 52.6181 330.036 52.6115C329.363 52.5786 328.06 53.0853 327.274 53.3469C327.662 47.8861 328.922 42.5323 329.227 37.0896C329.235 36.8954 328.954 36.8477 328.903 37.0221C327.185 42.5405 326.601 48.8141 326.055 54.4427C325.986 55.142 328.475 54.1268 328.959 53.8998Z" fill="#263238"/>
<path d="M329.505 57.4171C329.505 57.4171 330.611 59.1151 332.226 59.8029C332.822 60.0579 333.47 60.1829 334.168 60.0431C335.599 59.7568 335.713 58.4669 335.522 57.3431C335.367 56.4201 334.992 55.6106 334.992 55.6106C334.992 55.6106 332.817 57.4122 329.505 57.4171Z" fill="#263238"/>
<path d="M332.225 59.8025C332.82 60.0575 333.469 60.1826 334.166 60.0427C335.598 59.7564 335.711 58.4665 335.52 57.3428C334 57.4053 332.442 58.3415 332.225 59.8025Z" fill="#FF9CBD"/>
<path d="M362.11 50.4872C359.323 50.1054 352.628 41.841 353.448 28.305C353.448 28.305 353.553 40.5116 354.328 42.3593C355.103 44.207 350.586 37.7113 351.095 26.7847C351.095 26.7847 344.721 30.6776 339.461 31.724C334.201 32.7704 331.055 32.4792 330.716 32.0777C330.377 31.6763 338.136 29.8747 340.367 27.6699C340.367 27.6699 326.181 32.981 319.832 32.9761C319.097 32.9761 319.385 17.8918 329.633 12.2714C339.882 6.65101 354.813 14.7246 358.66 19.06C358.66 19.06 363.489 20.1311 368.237 27.7588C372.986 35.3865 365.111 50.8985 362.11 50.4872Z" fill="#263238"/>
<path d="M331.774 48.5965C332.407 51.9875 335.092 54.7944 338.686 55.3982C339.391 55.5282 340.092 55.5562 340.793 55.4986C344.566 55.1991 347.811 52.3757 348.472 48.4665C349.252 43.8678 346.154 39.4715 341.539 38.6801C336.924 37.8887 332.531 41 331.752 45.6135C331.58 46.6303 331.594 47.6422 331.774 48.5965ZM332.863 45.8109C333.449 42.4232 336.257 39.9848 339.528 39.7216C340.114 39.6706 340.728 39.7002 341.341 39.8039C345.339 40.4785 348.038 44.2824 347.348 48.2838C346.67 52.2688 342.853 54.9688 338.868 54.2909C334.883 53.5999 332.185 49.7959 332.863 45.8109Z" fill="#FFC727"/>
<path d="M331.774 48.5965C332.407 51.9875 335.092 54.7944 338.686 55.3982C339.391 55.5282 340.092 55.5562 340.793 55.4986C344.566 55.1991 347.811 52.3757 348.472 48.4665C349.252 43.8678 346.154 39.4715 341.539 38.6801C336.924 37.8887 332.531 41 331.752 45.6135C331.58 46.6303 331.594 47.6422 331.774 48.5965ZM332.863 45.8109C333.449 42.4232 336.257 39.9848 339.528 39.7216C340.114 39.6706 340.728 39.7002 341.341 39.8039C345.339 40.4785 348.038 44.2824 347.348 48.2838C346.67 52.2688 342.853 54.9688 338.868 54.2909C334.883 53.5999 332.185 49.7959 332.863 45.8109Z" fill="#FFC727"/>
<path d="M320.787 54.6943C320.96 54.691 321.15 54.6992 321.335 54.6794C324.579 54.4211 327.236 50.8656 327.412 46.4529C327.488 44.2202 326.932 42.0895 325.828 40.454C324.701 38.7643 323.126 37.7969 321.405 37.7409C319.681 37.6718 318.042 38.529 316.789 40.1266C315.583 41.6716 314.869 43.748 314.778 45.9839C314.609 50.655 317.295 54.5626 320.787 54.6943ZM315.918 46.0169C315.997 44.0293 316.624 42.1866 317.687 40.8127C318.602 39.6561 319.737 38.9798 320.938 38.8861C321.081 38.8745 321.224 38.8614 321.369 38.863C322.713 38.9173 323.966 39.712 324.89 41.0924C325.853 42.5222 326.353 44.416 326.274 46.4035C326.116 50.451 323.684 53.661 320.821 53.5574C317.973 53.4504 315.777 50.0742 315.918 46.0169Z" fill="#FFC727"/>
<path d="M320.787 54.6943C320.96 54.691 321.15 54.6992 321.335 54.6794C324.579 54.4211 327.236 50.8656 327.412 46.4529C327.488 44.2202 326.932 42.0895 325.828 40.454C324.701 38.7643 323.126 37.7969 321.405 37.7409C319.681 37.6718 318.042 38.529 316.789 40.1266C315.583 41.6716 314.869 43.748 314.778 45.9839C314.609 50.655 317.295 54.5626 320.787 54.6943ZM315.918 46.0169C315.997 44.0293 316.624 42.1866 317.687 40.8127C318.602 39.6561 319.737 38.9798 320.938 38.8861C321.081 38.8745 321.224 38.8614 321.369 38.863C322.713 38.9173 323.966 39.712 324.89 41.0924C325.853 42.5222 326.353 44.416 326.274 46.4035C326.116 50.451 323.684 53.661 320.821 53.5574C317.973 53.4504 315.777 50.0742 315.918 46.0169Z" fill="#FFC727"/>
<path d="M326.441 45.212L327.244 46.0198C329.161 44.0948 331.874 46.5036 331.996 46.6122L332.751 45.7599C331.514 44.6411 328.595 43.0681 326.441 45.212Z" fill="#FFC727"/>
<path d="M326.441 45.212L327.244 46.0198C329.161 44.0948 331.874 46.5036 331.996 46.6122L332.751 45.7599C331.514 44.6411 328.595 43.0681 326.441 45.212Z" fill="#FFC727"/>
<path d="M347.749 46.0761C352.109 45.8128 363.883 45.2534 365.691 45.6121C367.352 45.9543 369.143 49.0294 369.676 50.1762L370.703 49.6941C370.483 49.2137 368.436 45.0115 365.92 44.5097C363.569 44.0342 348.327 44.8947 347.682 44.9424L347.749 46.0761Z" fill="#FFC727"/>
<path d="M347.749 46.0761C352.109 45.8128 363.883 45.2534 365.691 45.6121C367.352 45.9543 369.143 49.0294 369.676 50.1762L370.703 49.6941C370.483 49.2137 368.436 45.0115 365.92 44.5097C363.569 44.0342 348.327 44.8947 347.682 44.9424L347.749 46.0761Z" fill="#FFC727"/>
<path d="M359.329 50.0346C359.329 50.0346 364.738 41.9265 368.405 43.8383C372.072 45.7502 368.127 57.4171 363.908 59.0937C359.69 60.7703 358.061 56.8956 358.061 56.8956L359.329 50.0346Z" fill="#D3766A"/>
<path d="M367.19 47.1541C367.26 47.1458 367.274 47.2413 367.215 47.2676C364.259 48.5411 362.75 51.3414 361.713 54.2339C362.577 53.1118 363.77 52.48 365.272 53.5034C365.351 53.5577 365.279 53.681 365.195 53.6646C363.967 53.4293 363.09 53.6613 362.287 54.6568C361.718 55.3626 361.338 56.2477 360.937 57.0556C360.803 57.3254 360.318 57.1938 360.413 56.8845C360.42 56.8614 360.428 56.8384 360.436 56.8154C360.277 53.0131 363.117 47.6263 367.19 47.1541Z" fill="#263238"/>
<path d="M379.053 101.047C372.655 140.216 354.652 168.833 347.187 170.063C327.093 173.375 293.118 140.522 282.987 132.812C278.89 129.696 312.303 101.729 316.257 105.557C325.571 114.575 337.912 126.65 338.58 126.65C340.003 126.65 344.791 116.915 362.281 93.9347C376.914 74.7075 381.671 85.0318 379.053 101.047Z" fill="#D3766A"/>
<path d="M264.383 67.7989C261.606 72.029 272.617 77.9917 272.617 77.9917C272.617 77.9917 269.122 77.9061 266.659 80.1898C263.839 82.8042 266.702 88.3753 266.702 88.3753C266.702 88.3753 263.146 89.0219 260.787 91.6955C258.338 94.4695 260.426 100.503 260.426 100.503C260.426 100.503 257.519 102.933 257.065 106.697C255.775 117.395 279.155 132.702 286.738 135.658L317.379 107.981C317.379 107.981 306.015 82.5657 296.753 76.0009C291.618 72.3581 268.628 61.3328 264.383 67.7989Z" fill="#D3766A"/>
<path d="M272.782 77.9292C279.375 79.9168 285.481 83.4805 291.333 86.9817C291.463 87.0591 291.34 87.2631 291.21 87.1825C285.43 83.6319 278.561 81.5423 272.651 78.2287C272.488 78.1365 272.605 77.8749 272.782 77.9292Z" fill="#263238"/>
<path d="M267.136 88.0448C268.613 88.5401 269.924 89.5206 271.209 90.3795C272.593 91.3042 273.959 92.2519 275.311 93.2226C278.018 95.1641 280.682 97.1664 283.283 99.2461C283.398 99.3383 283.286 99.5374 283.159 99.4469C280.458 97.5169 277.728 95.6281 274.948 93.8133C273.556 92.9051 272.157 92.01 270.752 91.1232C269.446 90.2972 267.998 89.5371 266.899 88.4348C266.736 88.2719 266.912 87.9708 267.136 88.0448Z" fill="#263238"/>
<path d="M260.545 100.58C261.846 100.959 263.029 102.076 264.1 102.877C265.315 103.787 266.535 104.69 267.76 105.587C270.209 107.379 272.659 109.171 275.17 110.877C275.295 110.962 275.173 111.163 275.047 111.078C272.487 109.357 269.905 107.672 267.36 105.928C266.111 105.072 264.865 104.208 263.625 103.34C262.57 102.601 261.168 101.796 260.449 100.699C260.41 100.638 260.481 100.562 260.545 100.58Z" fill="#263238"/>
<path d="M258.262 103.204C257.115 104.795 256.627 106.859 256.822 108.854C256.989 110.87 257.941 112.76 259.042 114.381C261.258 117.672 263.994 120.539 266.885 123.207C269.789 125.864 272.918 128.268 276.203 130.433C279.49 132.593 282.971 134.462 286.594 135.984L286.505 135.927C288.802 137.827 303.944 150.897 306.368 151.893C304.224 149.816 289.176 137.399 286.978 135.385L286.945 135.356L286.887 135.328C283.389 133.64 280.062 131.626 276.861 129.447C273.661 127.262 270.597 124.875 267.704 122.298C264.835 119.702 262.074 116.959 259.746 113.886C258.575 112.351 257.681 110.664 257.346 108.782C257 106.92 257.324 104.916 258.262 103.204Z" fill="#263238"/>
<path d="M373.917 134.013L343.691 117.06C343.691 117.06 355.984 96.2054 366.661 86.2546C377.337 76.3037 381.89 83.831 380.542 97.984C379.197 112.135 373.917 134.013 373.917 134.013Z" fill="#455A64"/>
<path d="M348.803 111.216C353.698 113.432 366.788 119.847 374.722 125.181C374.769 125.213 374.666 125.418 374.613 125.395C367.323 122.009 353.319 114.174 348.647 111.52C348.56 111.473 348.711 111.175 348.803 111.216Z" fill="#263238"/>
<path d="M370.985 132.37C372.02 132.816 373.025 133.313 374.042 133.788L373.662 133.956C374.371 129.288 375.223 124.66 376.232 120.061C376.73 117.761 377.25 115.466 377.849 113.184C378.42 110.897 379.029 108.616 379.735 106.351C379.47 108.695 379.109 111.025 378.71 113.348C378.338 115.676 377.889 117.991 377.416 120.303C376.485 124.926 375.398 129.518 374.165 134.071L374.07 134.426L373.787 134.239C372.854 133.619 371.905 133.02 370.985 132.37Z" fill="#263238"/>
<path d="M378.03 115.133C378.338 114.194 378.784 113.328 379.22 112.458C379.697 111.609 380.164 110.755 380.773 109.975C380.467 110.915 380.019 111.78 379.583 112.65C379.105 113.499 378.637 114.353 378.03 115.133Z" fill="#263238"/>
<path d="M344.839 117.902C344.387 117.717 343.969 117.483 343.538 117.269L343.352 117.177L343.464 116.935C345.081 113.439 347.034 110.123 349.167 106.927C351.31 103.741 353.667 100.674 356.414 97.9695L350.177 107.593C348.099 110.79 346.044 114.003 343.92 117.185L343.846 116.851C344.178 117.198 344.527 117.527 344.839 117.902Z" fill="#263238"/>
<path d="M350.863 104.987C351.059 104.018 351.402 103.108 351.735 102.191C352.112 101.293 352.475 100.39 352.989 99.5457C352.793 100.515 352.449 101.425 352.117 102.341C351.74 103.239 351.374 104.141 350.863 104.987Z" fill="#263238"/>
<path d="M0.79733 295.197C2.15307 298.858 68.5712 381.417 73.0942 382.965C74.807 383.56 87.3936 374.588 102.297 363.316C105.515 360.883 108.824 358.349 112.169 355.758C133.91 338.959 156.587 320.629 156.587 320.629L112.319 265.272L69.1191 301.925L59.6289 309.962C59.6289 309.962 20.0607 289.726 14.9191 288.561C9.78897 287.416 -0.558411 291.538 0.79733 295.197Z" fill="#D3766A"/>
<path d="M0.789088 295.202C2.14976 298.858 68.563 381.423 73.086 382.971C74.5832 383.498 84.3925 376.698 96.8048 367.448C84.1375 358.232 36.0367 314.892 29.5756 303.16C26.1747 296.989 31.1402 297.04 37.2098 298.739C27.2968 293.859 17.3327 289.116 14.9191 288.571C9.78403 287.413 -0.553491 291.546 0.789088 295.202Z" fill="#263238"/>
<path d="M71.429 293.575L117.498 355.732L272.956 247.86L287.946 237.451C287.946 237.451 292.189 240.308 298.58 243.842C307.455 248.746 320.461 254.959 331.966 256.654C351.266 259.51 383.49 259.204 399.755 237.451C413.456 219.136 406.014 195.241 406.014 195.241L384.824 186.141C384.824 186.141 334.676 144.359 302.194 143.101C288.398 142.553 268.308 153.009 249.702 163.932C231.115 174.842 71.429 293.575 71.429 293.575Z" fill="#263238"/>
<path d="M77.1842 289.293C76.8716 292.88 76.559 296.451 76.2135 300.021L75.7363 299.396C75.7857 298.902 75.8186 298.425 75.868 297.931C76.1148 295.2 76.3451 292.469 76.5919 289.738C76.7893 289.59 76.9703 289.441 77.1842 289.293ZM101.765 277.2C99.5276 284.111 95.7598 290.56 92.4198 296.961C89.8696 301.88 87.3029 307.03 85.345 312.361L85.6576 312.772C88.2243 305.829 91.844 299.165 95.2004 292.732C98.1455 287.089 101.387 281.248 102.917 275.029C103.345 273.301 103.657 271.458 103.756 269.615C103.575 269.747 103.394 269.879 103.213 270.01C103.049 272.495 102.473 274.979 101.765 277.2ZM123.796 320.094C124.553 314.664 125.573 308.231 123.089 303.098C120.983 298.754 116.326 297.158 111.983 299.165C107.836 301.09 104.628 305.319 103.986 309.86C102.308 321.426 111.571 332.269 108.56 343.671L108.889 344.132C109.284 342.7 109.515 341.236 109.597 339.788C109.992 333.585 107.639 327.843 105.944 322.002C104.019 315.388 102.983 308.083 108.083 302.604C110.008 300.531 112.707 298.787 115.619 298.705C119.173 298.573 121.904 301.057 123.105 304.266C125.474 310.567 123.631 318.136 122.694 324.553C121.855 330.476 121.032 336.827 123.089 342.602C123.977 345.119 125.408 347.274 127.185 349.018L127.514 348.788C125.244 346.534 123.648 343.638 122.858 340.315C121.312 333.684 122.858 326.708 123.796 320.094ZM141.977 301.897C136.399 299.017 130.279 296.747 125.573 292.469C120.259 287.632 117.939 280.425 117.034 273.482C116.392 268.546 116.557 263.149 118.646 258.592C118.465 258.723 118.284 258.855 118.12 259.003C117.313 260.895 116.836 262.952 116.573 264.959C115.866 270.767 116.836 276.937 118.778 282.449C120.752 288.092 124.273 292.518 129.308 295.743C134.441 299.034 140.282 301.074 145.465 304.282C150.944 307.672 155.616 312.459 158.562 318.218C159.746 320.505 160.585 322.973 161.062 325.507L161.507 325.194C159.286 314.796 151.256 306.668 141.977 301.897ZM170.934 261.669C165.521 251.665 154.366 247.881 144.609 243.488C143.49 242.994 142.372 242.468 141.269 241.908C141.138 242.007 141.006 242.106 140.874 242.204C148.64 246.071 157.163 248.555 163.975 254.067C173.748 261.981 177.861 278.418 168.483 288.29C164.287 292.683 157.212 295.184 152.342 290.313C147.702 285.69 148.18 278.369 148.673 272.396C149.15 266.703 149.578 260.352 145.794 255.597C143.194 252.323 139.213 250.299 135.132 249.674C133.767 249.46 132.368 249.394 130.986 249.493C130.789 249.641 130.575 249.789 130.377 249.937C131.644 249.789 132.944 249.789 134.244 249.937C139.114 250.48 143.951 253.031 146.501 257.308C150.154 263.478 147.999 271.047 147.933 277.76C147.883 282.679 148.969 288.454 153.181 291.564C156.999 294.394 161.885 293.703 165.686 291.186C175.344 284.769 176.101 271.228 170.934 261.669ZM184.048 229.075C187.19 223.069 186.548 216.488 183.801 210.713C183.718 210.779 183.62 210.845 183.521 210.911C185.43 215.123 186.186 219.878 185.249 224.386C184.048 230.21 179.934 234.685 174.225 236.331C168.697 237.91 162.741 236.364 159.565 231.362C159.137 230.704 158.775 229.996 158.463 229.272C158.331 229.355 158.2 229.453 158.068 229.552C158.808 231.197 159.812 232.727 161.194 234.06C167.989 240.576 179.984 236.841 184.048 229.075ZM176.627 304.973C173.518 308.346 172.07 313.052 172.465 317.593L172.909 317.28C172.629 313.397 173.633 309.465 176.101 306.24C180.856 300.054 188.539 300.399 195.499 301.386C195.581 301.403 195.68 301.419 195.762 301.419L196.289 301.057C195.022 300.893 193.738 300.712 192.455 300.58C186.729 299.955 180.724 300.482 176.627 304.973ZM193.393 245.413C200.254 242.813 207.757 245.627 214.634 246.713C220.376 247.634 226.201 247.206 231.712 245.347C242.242 241.777 253.101 232.316 253.71 220.503C253.99 215.336 251.621 210.006 247.08 207.324C242.226 204.461 236.648 206.156 232.535 209.512C227.599 213.543 224.934 219.417 221.034 224.32C217.283 229.009 211.047 233.238 204.795 230.918C197.901 228.384 198.395 219.417 201.011 213.921C203.561 208.574 208.283 204.609 213.318 201.68C223.848 195.543 236.352 194.309 247.063 188.6C252.378 185.77 256.869 181.805 259.93 176.589C262.924 171.489 264.635 165.549 265.244 159.692C265.392 158.228 265.474 156.697 265.425 155.151C265.31 155.2 265.195 155.266 265.079 155.332C265.112 160.959 263.911 166.668 261.92 171.637C259.37 177.988 255.092 183.236 249.284 186.856C243.789 190.295 237.537 192.253 231.383 194.145C220.919 197.37 209.369 201.006 202.64 210.318C199.727 214.366 197.918 219.729 199.069 224.715C200.237 229.733 204.63 232.431 209.632 231.872C222.778 230.408 225.082 213.987 235.349 208.064C241.699 204.412 248.889 206.896 251.983 213.461C255.224 220.322 252.197 228.236 247.738 233.797C243.707 238.832 238.195 242.616 232.124 244.771C225.707 247.042 219.159 247.19 212.528 245.923C206.292 244.738 199.481 242.665 193.278 245.018C189.345 246.499 186.647 249.789 185.528 253.804C184.459 257.687 184.821 262.096 186.812 265.65C189.263 270.01 193.887 271.886 198.691 272.297C205.042 272.873 211.426 271.294 217.711 272.758C221.989 273.762 225.378 276.328 226.793 279.899L227.221 279.603C226.776 278.401 226.102 277.283 225.164 276.263C221.676 272.478 216 271.656 211.097 271.656C204.565 271.656 197.259 273.268 191.303 269.714C182.419 264.416 183.751 249.065 193.393 245.413ZM255.01 251.747C250.995 249.592 246.537 250.892 243.394 253.936C239.758 257.473 237.849 262.639 238.063 267.674C238.129 269.056 238.277 270.422 238.507 271.771L238.853 271.524C238.59 269.764 238.442 267.987 238.491 266.193C238.656 260.435 242.144 253.607 247.853 251.583C252.838 249.789 257.215 252.965 259.452 257.243L259.798 256.996C258.696 254.84 257.198 252.899 255.01 251.747ZM298.167 220.256C297.262 214.464 295.551 207.801 290.549 204.148C286.567 201.253 281.105 200.841 276.531 202.437C271.661 204.165 268.107 208.245 266.412 213.049C262.101 225.307 270.641 235.475 277.781 244.524L278.061 244.327C274.03 239.259 269.67 234.274 267.235 228.203C264.833 222.148 264.981 215.188 268.419 209.545C271.874 203.852 278.538 200.792 285.103 202.141C292.359 203.638 295.666 210.187 297.179 216.834C299.17 225.653 298.397 235.047 299.105 244.146C299.269 244.228 299.45 244.327 299.615 244.409C299.532 243.34 299.467 242.254 299.417 241.201C299.055 234.208 299.236 227.183 298.167 220.256ZM340.336 216.57C336.091 214.464 331.106 214.876 327.634 218.216C324.163 221.556 322.912 226.738 322.962 231.395C323.027 238.387 325.989 244.969 326.532 251.912C326.631 253.08 326.631 254.314 326.516 255.548C326.664 255.581 326.795 255.614 326.927 255.647C327.552 246.548 322.238 236.956 323.62 227.742C324.492 221.951 328.095 215.83 334.627 215.633C341.011 215.435 346.621 220.98 348.596 226.689C352.084 236.824 348.036 247.519 348.349 257.917H348.744C348.629 254.939 348.859 251.928 349.188 249.049C350.438 237.811 352.66 222.675 340.336 216.57ZM293.198 151.136C293.148 148.734 293.264 146.299 293.626 143.93C293.478 143.963 293.346 143.996 293.198 144.012C293.099 144.687 293.017 145.378 292.967 146.052C292.408 152.436 293.329 158.853 293.938 165.204C294.514 171.11 295.32 177.379 292.194 182.743C290.845 185.046 288.607 187.251 285.712 186.856C281.829 186.33 280.068 182.183 279.13 178.86C277.041 171.555 278.028 163.805 279.821 156.533C280.578 153.473 281.533 150.396 282.503 147.286C282.322 147.352 282.141 147.418 281.96 147.484C279.953 154.032 277.995 160.613 277.584 167.491C277.255 173.085 277.732 180.472 281.582 184.947C284.593 188.452 289.035 187.728 291.668 184.273C294.712 180.275 295.057 175.306 294.777 170.469C294.382 164.003 293.313 157.602 293.198 151.136ZM331.172 151.432C331.073 151.383 330.974 151.334 330.876 151.284C330.201 153.111 329.707 154.855 329.411 156.385C328.21 162.456 328.227 168.675 328.49 174.845C328.802 181.821 329.148 189.867 323.587 195.066C321.119 197.37 317.631 198.801 314.258 197.781C311 196.794 308.647 193.98 307.446 190.887C304.633 183.648 308.154 175.322 310.21 168.33C311.313 164.595 312.399 160.86 313.501 157.109C314.57 153.489 315.755 149.869 316.397 146.151C316.413 146.003 316.446 145.871 316.463 145.723C316.347 145.69 316.232 145.657 316.117 145.608C315.475 149.54 314.093 153.473 313.057 157.01C310.918 164.315 308.351 171.637 306.722 179.09C305.505 184.635 305.538 190.788 309.552 195.247C312.991 199.081 318.289 199.508 322.468 196.58C327.239 193.223 328.835 187.514 329.066 181.953C329.345 175.257 328.457 168.593 329.082 161.897C329.411 158.359 330.053 154.805 331.172 151.432ZM377.208 180.143C377.093 180.061 376.994 179.979 376.879 179.896C370.955 186.198 366.809 194.589 357.842 196.876C352.429 198.275 345.914 196.892 344.449 190.722C342.722 183.483 347.74 175.767 351.146 169.778C352.199 167.951 353.235 166.092 354.19 164.167C354.058 164.068 353.943 163.986 353.811 163.92C351.36 168.922 348.184 173.562 345.996 178.695C343.956 183.5 342.13 190.048 345.848 194.556C348.497 197.781 353.005 198.291 356.872 197.551C366.645 195.658 370.906 186.741 377.208 180.143ZM394.204 211.059C390.239 207.126 384.628 204.593 379.001 204.856C373.703 205.086 368.833 207.982 366.135 212.556C363.568 216.932 363.765 222.016 366.283 226.36C368.965 231.016 373.391 234.356 377.093 238.157C380.515 241.662 383.065 245.758 384.348 250.365C384.48 250.316 384.612 250.25 384.727 250.168C383.295 244.952 380.284 240.724 376.467 236.956C372.403 232.958 367.402 229.124 365.411 223.596C363.124 217.229 366.431 210.45 372.14 207.176C378.31 203.655 386.076 205.267 391.571 209.315C396.047 212.638 398.63 218.397 403.763 220.832C404.783 221.309 405.82 221.572 406.84 221.654C406.873 221.556 406.906 221.441 406.906 221.325C401.213 220.865 397.906 214.711 394.204 211.059Z" fill="#455A64"/>
<path d="M287.948 237.451C287.948 237.451 292.191 240.307 298.581 243.842C309.877 230.319 333.791 205.759 334.517 204.887L287.948 237.451Z" fill="#37474F"/>
<path d="M366.45 172.155C369.448 174.237 372.347 176.448 375.304 178.585C378.213 180.686 381.215 182.661 383.981 184.956C386.793 187.289 389.459 189.782 392.108 192.296C393.386 193.508 394.654 194.731 395.89 195.988C397.114 197.233 398.485 198.482 399.5 199.907C399.594 200.04 399.404 200.196 399.279 200.117C397.848 199.199 396.561 197.941 395.262 196.848C393.858 195.668 392.471 194.469 391.074 193.281C388.379 190.991 385.632 188.763 382.941 186.465C380.269 184.183 377.795 181.683 375.149 179.372C372.318 176.897 369.331 174.594 366.39 172.251C366.334 172.208 366.388 172.114 366.45 172.155Z" fill="#37474F"/>
<path d="M87.2157 287.238C90.0045 290.643 92.5547 294.277 95.1313 297.846C97.7161 301.429 100.283 305.026 102.828 308.637C107.922 315.864 113.067 323.06 118.06 330.356C120.805 334.364 123.508 338.396 126.034 342.547C126.146 342.732 125.851 342.916 125.718 342.75C120.183 335.864 115.184 328.574 110.1 321.354C105.008 314.121 99.9356 306.872 94.9536 299.563C92.2273 295.564 89.4072 291.579 86.931 287.419C86.8307 287.255 87.0939 287.092 87.2157 287.238Z" fill="#37474F"/>
<path d="M209.828 291.979C217.563 285.883 225.584 280.129 233.603 274.412C241.581 268.722 249.556 263.019 257.654 257.501C259.979 255.917 262.325 254.367 264.668 252.809C267.006 251.254 269.44 249.819 271.732 248.205C271.865 248.111 271.983 248.333 271.853 248.425C269.749 249.934 267.763 251.626 265.695 253.19C263.72 254.684 261.763 256.198 259.772 257.67C255.889 260.547 251.965 263.367 248.049 266.198C240.107 271.94 232.106 277.61 224.022 283.153C219.434 286.301 214.866 289.46 210.175 292.453C209.896 292.63 209.563 292.188 209.828 291.979Z" fill="#37474F"/>
<path d="M160.113 227.844C167.26 221.919 174.923 216.593 182.412 211.118C189.99 205.578 197.529 199.987 205.136 194.487C212.683 189.031 220.23 183.575 227.777 178.119C235.093 172.831 242.374 167.456 250.1 162.774C254.329 160.212 258.666 157.836 263.125 155.697C267.455 153.619 271.955 151.505 276.585 150.198C276.723 150.159 276.801 150.361 276.677 150.43C272.868 152.558 268.869 154.348 265.014 156.4C261.203 158.428 257.45 160.564 253.758 162.802C246.088 167.453 238.843 172.734 231.568 177.968C216.455 188.837 201.374 199.749 186.154 210.466C177.637 216.464 169.296 222.793 160.45 228.305C160.177 228.479 159.858 228.055 160.113 227.844Z" fill="#37474F"/>
</svg>
