<svg xmlns="http://www.w3.org/2000/svg" width="14" height="14" viewBox="0 0 14 14" fill="none"><g clip-path="url(#clip0_1_562)">
                                        <path fill-rule="evenodd" clip-rule="evenodd" d="M2.71108 1.3729C3.46413 0.619858 4.70955 0.708369 5.34852 1.56034L6.40918 2.97455C6.93171 3.67126 6.86243 4.64618 6.24662 5.26199L5.46462 6.04398C5.5404 6.24124 5.78989 6.67412 6.54962 7.43386C7.30935 8.19359 7.74224 8.44307 7.9395 8.51885L8.72149 7.73686C9.3373 7.12105 10.3122 7.05176 11.0089 7.5743L12.4231 8.63496C13.2751 9.27393 13.3636 10.5194 12.6106 11.2724C12.3658 11.5172 12.3243 11.5586 11.9158 11.9672C11.4994 12.3836 10.6152 12.7728 9.72011 12.8117C8.31934 12.8726 6.41664 12.2506 4.07475 9.90873C1.73285 7.56684 1.11087 5.66414 1.17177 4.26337C1.20565 3.48415 1.45339 2.62832 2.01953 2.07097C2.42483 1.65915 2.47754 1.60644 2.71108 1.3729ZM2.33734 4.31404C2.29512 5.28503 2.70433 6.8884 4.89971 9.08377C7.09508 11.2791 8.69845 11.6884 9.66944 11.6461C10.5759 11.6067 11.0621 11.1688 11.0908 11.1423L11.7856 10.4474C12.0366 10.1964 12.0071 9.78128 11.7231 9.56829L10.3089 8.50763C10.0767 8.33345 9.75172 8.35655 9.54645 8.56182C9.23717 8.87109 9.02606 9.08534 8.6128 9.49703C7.75435 10.3522 6.28489 8.81904 5.72466 8.25882C5.20982 7.74398 3.64086 6.22786 4.48561 5.37309C4.48728 5.37141 4.71481 5.14388 5.42166 4.43703C5.62693 4.23176 5.65002 3.90679 5.47585 3.67455L4.41519 2.26034C4.2022 1.97635 3.78706 1.94685 3.53604 2.19786C3.30501 2.42889 3.04355 2.69035 2.84193 2.89337C2.42696 3.3112 2.35954 3.80328 2.33734 4.31404Z" fill="#12131A"></path></g><defs><clipPath id="clip0_1_562"><rect width="14" height="14" fill="white"></rect></clipPath></defs>
                                    </svg>