<svg xmlns="http://www.w3.org/2000/svg" width="12" height="12" viewBox="0 0 12 12" fill="none"><g clip-path="url(#clip0_1_508)">
                                <path fill-rule="evenodd" clip-rule="evenodd" d="M11.8704 1.16417C12.0074 1.31521 12.0389 1.53425 11.9501 1.71777L7.59593 10.7178C7.52579 10.8628 7.3901 10.9651 7.23141 10.9926C7.07272 11.0202 6.91047 10.9696 6.79555 10.8568L5.06335 9.1561L3.34961 10.6517C3.2065 10.7766 3.00497 10.8096 2.82949 10.737C2.654 10.6643 2.53486 10.4984 2.52199 10.3089L2.31069 7.19698L0.246224 5.98083C0.0797703 5.88277 -0.0153014 5.6976 0.00202164 5.50519C0.0193447 5.31278 0.145963 5.14756 0.327254 5.08081L11.3273 1.03081C11.5186 0.960374 11.7335 1.01314 11.8704 1.16417ZM3.34923 7.73073L3.45141 9.23561L4.34766 8.45343L3.87393 7.98831L3.34923 7.73073ZM4.91243 7.60651L6.9991 9.65524L10.0489 3.35145L4.91243 7.60651ZM8.93151 2.97851L1.66281 5.65471L3.02908 6.45956L4.09673 6.98368L8.93151 2.97851Z" fill="black"></path></g><defs><clipPath id="clip0_1_508"><rect width="12" height="12" fill="white"></rect></clipPath></defs>
                            </svg>