<svg width="120" height="29" viewBox="0 0 120 29" fill="none" xmlns="http://www.w3.org/2000/svg">
<path d="M8.42005 15.1052L4.48732 18.3572C4.51252 21.3068 4.57555 23.8656 4.67639 26.0336C4.7016 26.563 4.53773 27.0294 4.1848 27.4328C3.85707 27.8109 3.4285 28.0126 2.8991 28.0378C2.36969 28.063 1.90331 27.9118 1.49995 27.584C1.1218 27.2311 0.920126 26.7899 0.894916 26.2605C0.819287 24.7479 0.768867 23.2606 0.743658 21.7984C0.718448 19.9833 0.705843 18.1304 0.705843 16.2396C0.705843 14.3489 0.693238 12.8741 0.668028 11.8153C0.668028 11.1598 0.617608 9.81112 0.516769 7.76912C0.41593 5.70192 0.378115 4.05068 0.403325 2.8154C0.403325 2.28599 0.592399 1.84482 0.970546 1.49188C1.34869 1.13894 1.80247 0.962474 2.33188 0.962474C2.86128 0.962474 3.30245 1.15155 3.65539 1.52969C4.00833 1.90784 4.1848 2.36162 4.1848 2.89102C4.15959 4.1011 4.1974 5.71452 4.29824 7.73131C4.39908 9.74809 4.4495 11.0842 4.4495 11.7397C4.4495 12.2943 4.46211 12.8867 4.48732 13.517C8.44526 10.2145 12.5545 6.24393 16.8149 1.60532C17.1679 1.22718 17.609 1.0255 18.1384 1.00029C18.6678 0.975079 19.1216 1.13894 19.4998 1.49188C19.8779 1.84482 20.0796 2.28599 20.1048 2.8154C20.13 3.3448 19.9661 3.79858 19.6132 4.17672C16.7897 7.30274 14.004 10.1136 11.2561 12.6094L20.9745 24.9748C21.3023 25.3782 21.4283 25.8446 21.3527 26.374C21.3023 26.8782 21.0754 27.2941 20.672 27.6219C20.2687 27.9496 19.8023 28.0756 19.2729 28C18.7687 27.9496 18.3527 27.7227 18.025 27.3193L8.42005 15.1052ZM23.8685 26.1849C23.8181 24.2942 23.8181 21.395 23.8685 17.4875C23.9442 13.58 23.982 11.0212 23.982 9.81112C23.982 9.28171 24.1585 8.84054 24.5114 8.4876C24.8895 8.10946 25.3433 7.92038 25.8727 7.92038C26.4021 7.92038 26.8433 8.10946 27.1962 8.4876C27.5744 8.84054 27.7635 9.28171 27.7635 9.81112C27.7635 11.0212 27.7256 13.5674 27.65 17.4497C27.5996 21.332 27.5996 24.2185 27.65 26.1093C27.65 26.6387 27.4735 27.0924 27.1206 27.4706C26.7677 27.8487 26.3265 28.0378 25.7971 28.0378C25.2677 28.0378 24.8139 27.8613 24.4358 27.5084C24.0576 27.1555 23.8685 26.7143 23.8685 26.1849ZM27.3853 1.37843C27.8139 1.807 28.0282 2.33641 28.0282 2.96665C28.0282 3.5969 27.8139 4.12631 27.3853 4.55487C26.9567 4.98344 26.4273 5.19772 25.7971 5.19772C25.1668 5.19772 24.6374 4.98344 24.2089 4.55487C23.7803 4.12631 23.566 3.5969 23.566 2.96665C23.566 2.33641 23.7803 1.807 24.2089 1.37843C24.6374 0.949869 25.1668 0.735586 25.7971 0.735586C26.4525 0.710375 26.982 0.924658 27.3853 1.37843ZM47.5547 28C47.1514 28 46.7858 27.8866 46.4581 27.6597C46.1304 27.4328 45.9035 27.0042 45.7774 26.374C44.6934 27.1555 43.559 27.6597 42.3741 27.8866C40.7355 28.1891 39.2355 28.1008 37.8742 27.6219C36.5128 27.1429 35.3658 26.3488 34.433 25.2395C32.744 23.2732 31.912 20.7774 31.9373 17.7522C31.9625 15.0296 32.8448 12.685 34.5843 10.7187C36.6767 8.37416 39.4246 7.50442 42.8279 8.10946C43.9875 8.31114 44.8699 8.57584 45.4749 8.90357L45.3993 2.85321C45.3993 2.3238 45.5758 1.87003 45.9287 1.49188C46.3069 1.11373 46.748 0.92466 47.2522 0.92466C47.7816 0.92466 48.2354 1.11373 48.6136 1.49188C48.9917 1.84482 49.1808 2.27338 49.1808 2.77758C49.3572 14.2733 49.4455 22.0505 49.4455 26.1093C49.4455 26.6387 49.2564 27.0924 48.8783 27.4706C48.5253 27.8235 48.0841 28 47.5547 28ZM41.6935 24.1807C42.1724 24.0799 42.6766 23.9034 43.206 23.6513C43.7355 23.3992 44.101 23.1975 44.3027 23.0463C44.5296 22.8698 44.6934 22.7185 44.7943 22.5925C44.9203 22.4664 45.059 22.3278 45.2102 22.1765C45.3615 22.0001 45.5001 21.7354 45.6262 21.3824C45.6262 18.1808 45.601 15.6346 45.5506 13.7439C45.5253 13.7439 45.5001 13.7312 45.4749 13.706C44.4161 12.7985 43.8867 12.3321 43.8867 12.3069C43.6094 12.1304 43.0296 11.9666 42.1472 11.8153C40.1304 11.4624 38.5548 11.9413 37.4204 13.2523C36.286 14.4875 35.7187 15.9875 35.7187 17.7522C35.6935 19.8446 36.2229 21.5337 37.3069 22.8194C38.391 24.0799 39.8531 24.5337 41.6935 24.1807ZM69.2317 28C68.8284 28 68.4628 27.8866 68.1351 27.6597C67.8074 27.4328 67.5805 27.0042 67.4544 26.374C66.3704 27.1555 65.236 27.6597 64.0511 27.8866C62.4125 28.1891 60.9125 28.1008 59.5512 27.6219C58.1898 27.1429 57.0428 26.3488 56.11 25.2395C54.421 23.2732 53.589 20.7774 53.6142 17.7522C53.6395 15.0296 54.5218 12.685 56.2613 10.7187C58.3537 8.37416 61.1016 7.50442 64.5049 8.10946C65.6645 8.31114 66.5469 8.57584 67.1519 8.90357L67.0763 2.85321C67.0763 2.3238 67.2528 1.87003 67.6057 1.49188C67.9838 1.11373 68.425 0.92466 68.9292 0.92466C69.4586 0.92466 69.9124 1.11373 70.2905 1.49188C70.6687 1.84482 70.8578 2.27338 70.8578 2.77758C71.0342 14.2733 71.1225 22.0505 71.1225 26.1093C71.1225 26.6387 70.9334 27.0924 70.5552 27.4706C70.2023 27.8235 69.7611 28 69.2317 28ZM63.3704 24.1807C63.8494 24.0799 64.3536 23.9034 64.883 23.6513C65.4124 23.3992 65.778 23.1975 65.9797 23.0463C66.2066 22.8698 66.3704 22.7185 66.4713 22.5925C66.5973 22.4664 66.736 22.3278 66.8872 22.1765C67.0385 22.0001 67.1771 21.7354 67.3032 21.3824C67.3032 18.1808 67.278 15.6346 67.2275 13.7439C67.2023 13.7439 67.1771 13.7312 67.1519 13.706C66.0931 12.7985 65.5637 12.3321 65.5637 12.3069C65.2864 12.1304 64.7066 11.9666 63.8242 11.8153C61.8074 11.4624 60.2318 11.9413 59.0974 13.2523C57.9629 14.4875 57.3957 15.9875 57.3957 17.7522C57.3705 19.8446 57.8999 21.5337 58.9839 22.8194C60.068 24.0799 61.5301 24.5337 63.3704 24.1807ZM86.3331 27.7353C83.0054 28.542 80.3458 27.874 78.3542 25.7311C76.766 24.0925 75.7828 21.9875 75.4047 19.4161C75.1274 17.3993 75.3669 15.4833 76.1232 13.6682C77.0307 11.3489 78.4677 9.63465 80.434 8.52542C80.8374 8.29853 81.3416 8.13467 81.9466 8.03383C81.9718 8.03383 82.1483 8.02122 82.476 7.99601C82.6021 7.9708 82.7029 7.94559 82.7786 7.92038C83.1567 7.84475 83.5348 7.88257 83.913 8.03383C84.0138 8.03383 84.2533 8.04643 84.6315 8.07164C85.0096 8.07164 85.2617 8.08425 85.3878 8.10946C85.5138 8.10946 85.7281 8.13467 86.0306 8.18508C86.3583 8.2103 86.6231 8.24811 86.8247 8.29853L87.5432 8.56323C87.8457 8.66407 88.1356 8.79012 88.4129 8.94138C88.6903 9.09264 88.9928 9.26911 89.3205 9.47079C90.9591 10.58 92.0936 12.143 92.7238 14.1598C93.3541 16.1514 93.5179 17.7648 93.2154 19.0001C92.9885 20.3614 92.5852 21.6345 92.0053 22.8194C91.4255 23.979 90.6188 25.0126 89.5852 25.9202C88.5768 26.8277 87.4928 27.4328 86.3331 27.7353ZM85.1609 23.8026C86.2449 23.6513 87.1651 23.0967 87.9214 22.1387C88.7029 21.1555 89.2071 20.1219 89.4339 19.0379C89.686 17.9539 89.5978 16.769 89.1692 15.4833C88.7659 14.1724 88.1104 13.227 87.2029 12.6472C86.9256 12.4455 86.6987 12.3069 86.5222 12.2313C86.3457 12.1304 86.1315 12.0548 85.8794 12.0044C85.6525 11.9287 85.4634 11.8909 85.3121 11.8909C85.1861 11.8909 84.8962 11.8783 84.4424 11.8531C83.9886 11.8279 83.5853 11.8027 83.2323 11.7775C83.1567 11.7775 83.0685 11.7649 82.9676 11.7397C82.6903 11.7649 82.5391 11.7775 82.5139 11.7775L82.2491 11.8531C81.1399 12.4581 80.2828 13.4287 79.6777 14.7648C79.0979 16.0758 78.9341 17.4371 79.1862 18.8488C79.4635 20.5631 80.0811 21.8614 81.0391 22.7438C82.0727 23.7017 83.4466 24.0547 85.1609 23.8026ZM101.586 28C99.7205 27.6723 98.3718 26.916 97.5399 25.7311C97.1365 25.2017 96.8466 24.4958 96.6702 23.6135L96.5189 22.7816C96.4685 22.5295 96.4181 22.3278 96.3676 22.1765C96.2164 21.6975 96.2668 21.2312 96.5189 20.7774C96.771 20.3236 97.1491 20.0337 97.6533 19.9076C98.1575 19.7816 98.6365 19.832 99.0903 20.0589C99.5441 20.2858 99.8466 20.6513 99.9978 21.1555C100.073 21.4328 100.149 21.748 100.225 22.1009C100.25 22.227 100.263 22.353 100.263 22.4791C100.288 22.5799 100.338 22.769 100.414 23.0463C100.489 23.374 100.666 23.6513 100.943 23.8782C101.246 24.1555 101.7 24.332 102.305 24.4076C103.313 24.6093 104.397 24.5841 105.557 24.332C106.691 24.0799 107.573 23.7143 108.204 23.2353C108.657 22.832 108.846 22.416 108.771 21.9875C108.695 21.2816 108.254 20.7522 107.447 20.3992C106.943 20.1724 105.632 19.8698 103.515 19.4917C101.321 19.0631 99.771 18.5085 98.8634 17.8278C97.1996 16.5926 96.6575 14.7522 97.2374 12.3069C97.5903 10.8951 98.3088 9.86154 99.3928 9.20608C100.502 8.52542 101.725 8.14727 103.061 8.07164C104.195 8.02122 105.342 8.15988 106.502 8.4876C107.687 8.79012 108.695 9.21869 109.527 9.7733C109.804 9.97498 110.094 10.2145 110.397 10.4918C110.699 10.7691 110.989 11.0716 111.267 11.3993C111.569 11.7271 111.746 11.9035 111.796 11.9287C112.174 12.3069 112.363 12.7481 112.363 13.2523C112.363 13.7312 112.174 14.1598 111.796 14.538C111.443 14.8909 111.002 15.0674 110.473 15.0674C109.968 15.0674 109.527 14.8909 109.149 14.538C108.897 14.3111 108.645 14.0716 108.393 13.8195L107.863 13.1766C107.712 13.0506 107.536 12.9245 107.334 12.7985C106.855 12.496 106.237 12.2439 105.481 12.0422C104.725 11.8153 103.981 11.7145 103.25 11.7397C101.914 11.8153 101.145 12.2817 100.943 13.1388C100.716 14.0464 100.792 14.6388 101.17 14.9161C101.624 15.2438 102.645 15.5716 104.233 15.8993C106.578 16.3026 108.178 16.6934 109.036 17.0715C111.103 18.0043 112.275 19.5043 112.552 21.5715C112.779 23.2606 112.149 24.7227 110.662 25.958C109.527 26.8908 108.09 27.5336 106.351 27.8866C104.687 28.2647 103.099 28.3025 101.586 28ZM118.985 24.2563C119.439 24.6849 119.666 25.2017 119.666 25.8067C119.666 26.3866 119.452 26.8908 119.023 27.3193C118.595 27.7479 118.078 27.9622 117.473 27.9622C116.868 27.9622 116.351 27.7479 115.922 27.3193C115.519 26.8908 115.317 26.3866 115.317 25.8067C115.317 25.2017 115.519 24.6849 115.922 24.2563C116.351 23.8278 116.868 23.6135 117.473 23.6135C118.078 23.6135 118.582 23.8278 118.985 24.2563Z" fill="black"/>
</svg>
