<svg xmlns="http://www.w3.org/2000/svg" width="12" height="12" viewBox="0 0 12 12" fill="none">
                          <g clip-path="url(#clip0_1_608)">
                          <path fill-rule="evenodd" clip-rule="evenodd" d="M6.79256 2.7004L6.39822 2.18032C6.19814 1.91646 5.80146 1.91646 5.60138 2.18032L5.20704 2.7004C4.97778 3.00274 4.60324 3.15789 4.22734 3.1062L3.58074 3.0173C3.25269 2.97219 2.97219 3.25269 3.0173 3.58074L3.1062 4.22734C3.15789 4.60324 3.00274 4.97778 2.7004 5.20704L2.18032 5.60138C1.91646 5.80146 1.91646 6.19814 2.18032 6.39822L2.7004 6.79256C3.00275 7.02182 3.15788 7.39636 3.1062 7.77226L3.0173 8.41886C2.97219 8.74692 3.25269 9.02741 3.58074 8.9823L4.22734 8.8934C4.60324 8.84172 4.97778 8.99686 5.20704 9.2992L5.60138 9.81928C5.80146 10.0831 6.19814 10.0831 6.39822 9.81928L6.79256 9.2992C7.02182 8.99686 7.39636 8.84172 7.77226 8.8934L8.41886 8.9823C8.74692 9.02741 9.02741 8.74692 8.9823 8.41886L8.8934 7.77226C8.84172 7.39636 8.99686 7.02182 9.2992 6.79256L9.81928 6.39822C10.0831 6.19814 10.0831 5.80146 9.81928 5.60138L9.2992 5.20704C8.99686 4.97778 8.84172 4.60324 8.8934 4.22734L8.9823 3.58074C9.02741 3.25269 8.74692 2.97219 8.41886 3.0173L7.77226 3.1062C7.39636 3.15789 7.02182 3.00274 6.79256 2.7004ZM7.19505 1.57612C6.59482 0.784522 5.40478 0.784522 4.80455 1.57612L4.4102 2.0962C4.39929 2.11059 4.38145 2.11798 4.36355 2.11552L3.71696 2.02662C2.73278 1.8913 1.8913 2.73278 2.02662 3.71696L2.11552 4.36355C2.11798 4.38145 2.11059 4.39929 2.0962 4.4102L1.57612 4.80455C0.784522 5.40478 0.784522 6.59482 1.57612 7.19505L2.0962 7.5894C2.11059 7.60031 2.11798 7.61815 2.11552 7.63605L2.02662 8.28264C1.8913 9.26682 2.73278 10.1083 3.71696 9.97298L4.36355 9.88408C4.38145 9.88162 4.39929 9.88901 4.4102 9.90341L4.80455 10.4235C5.40478 11.2151 6.59482 11.2151 7.19505 10.4235L7.5894 9.90341C7.60031 9.88901 7.61815 9.88162 7.63605 9.88408L8.28264 9.97298C9.26682 10.1083 10.1083 9.26682 9.97298 8.28264L9.88408 7.63605C9.88162 7.61815 9.88901 7.60031 9.90341 7.5894L10.4235 7.19505C11.2151 6.59482 11.2151 5.40478 10.4235 4.80455L9.90341 4.4102C9.88901 4.39929 9.88162 4.38145 9.88408 4.36355L9.97298 3.71696C10.1083 2.73278 9.26682 1.8913 8.28264 2.02662L7.63605 2.11552C7.61815 2.11798 7.60031 2.11059 7.5894 2.0962L7.19505 1.57612Z" fill="white"></path>
                          <path d="M7.35355 5.35355L5.35355 7.35355C5.15829 7.54882 4.84171 7.54882 4.64645 7.35355C4.45118 7.15829 4.45118 6.84171 4.64645 6.64645L6.64645 4.64645C6.84171 4.45118 7.15829 4.45118 7.35355 4.64645C7.54882 4.84171 7.54882 5.15829 7.35355 5.35355Z" fill="white"></path>
                          <path d="M5.5 5C5.5 5.27614 5.27614 5.5 5 5.5C4.72386 5.5 4.5 5.27614 4.5 5C4.5 4.72386 4.72386 4.5 5 4.5C5.27614 4.5 5.5 4.72386 5.5 5Z" fill="white"></path>
                          <path d="M6.5 7C6.5 7.27614 6.72386 7.5 7 7.5C7.27614 7.5 7.5 7.27614 7.5 7C7.5 6.72386 7.27614 6.5 7 6.5C6.72386 6.5 6.5 6.72386 6.5 7Z" fill="white"></path>
                          </g>
                          <defs>
                          <clipPath id="clip0_1_608">
                          <rect width="12" height="12" fill="white"></rect>
                          </clipPath>
                          </defs>
                        </svg>