<svg width="9" height="9" viewBox="0 0 9 9" fill="none" xmlns="http://www.w3.org/2000/svg">
<path d="M0.0128161 3.26474C0.0435803 3.17002 0.125444 3.10101 0.22398 3.08669L2.99209 2.68444L4.23005 0.17609C4.27412 0.0867966 4.36506 0.0302734 4.46464 0.0302734C4.5642 0.0302734 4.65515 0.086814 4.69922 0.17609L5.93725 2.68445L8.70531 3.08669C8.80385 3.10101 8.88571 3.17004 8.91648 3.26474C8.94726 3.35943 8.92159 3.46339 8.85029 3.53289L6.84734 5.48539L7.32011 8.24236C7.33694 8.3405 7.29658 8.4397 7.21602 8.49821C7.13549 8.55672 7.02872 8.56445 6.94052 8.51812L4.46465 7.21647L1.98886 8.51814C1.95057 8.53827 1.90879 8.54819 1.86714 8.54819C1.8129 8.54819 1.75891 8.53134 1.71336 8.49823C1.6328 8.4397 1.59244 8.34052 1.60927 8.24236L2.08218 5.48539L0.0790182 3.53291C0.00770603 3.46339 -0.0179655 3.35943 0.0128161 3.26474ZM2.54585 5.20672C2.60752 5.26682 2.63567 5.35342 2.62109 5.43829L2.21455 7.80835L4.34289 6.68936C4.4191 6.6493 4.51016 6.6493 4.58637 6.68936L6.71483 7.80837L6.30841 5.43827C6.29387 5.3534 6.322 5.26683 6.38363 5.20673L8.1055 3.52824L5.7259 3.18242C5.64069 3.17004 5.56706 3.11653 5.52893 3.03932L4.46465 0.882934L3.40041 3.03931C3.36229 3.11651 3.28866 3.17004 3.20345 3.18242L0.823811 3.52822L2.54585 5.20672Z" fill="#173334"/>
<path d="M3.1697 2.77761L4.15754 1.04889C4.2913 0.814806 4.63028 0.819078 4.75811 1.05646L5.59474 2.61022C5.64056 2.6953 5.72009 2.75714 5.81383 2.78057L7.88332 3.29795C8.12898 3.35936 8.22597 3.65646 8.06386 3.85099L6.79241 5.37673C6.73153 5.44979 6.70366 5.54482 6.71546 5.63919L6.96333 7.62215C6.99683 7.89018 6.72208 8.09019 6.47731 7.97596L4.60988 7.10449C4.51782 7.06153 4.41147 7.06153 4.31941 7.10449L2.49492 7.95592C2.24154 8.07417 1.9606 7.85624 2.01213 7.58142L2.37065 5.66931C2.39154 5.55788 2.3561 5.44333 2.27594 5.36317L0.803831 3.89106C0.608544 3.69577 0.711939 3.36156 0.983385 3.31066L2.93481 2.94477C3.03383 2.9262 3.11971 2.86509 3.1697 2.77761Z" fill="#173334"/>
</svg>
